<svg width="297" height="82" viewBox="0 0 297 82" fill="none" xmlns="http://www.w3.org/2000/svg">
<path d="M62.3726 1.01894C60.3481 1.45154 59.1541 2.36865 58.3408 4.04712L57.8909 4.99883L57.839 16.627L57.7871 28.2552L58.1851 28.3591C58.41 28.411 59.4483 28.4456 60.4865 28.411L62.3899 28.3591L62.4765 17.3192L62.563 6.26202L63.0475 5.84672C63.6531 5.32761 64.5183 5.293 65.0374 5.79481C65.4527 6.15819 66.3006 7.75015 67.062 9.58436C67.46 10.5534 68.1867 12.1626 69.398 14.862C69.571 15.2427 70.0729 16.3675 70.5228 17.3711C70.9727 18.3747 71.5264 19.6033 71.7513 20.1051C71.9763 20.6069 72.1666 21.0395 72.1666 21.0741C72.1666 21.1087 72.5127 21.8874 72.9453 22.8045C73.3779 23.7216 73.724 24.5522 73.724 24.6214C73.724 25.0367 75.0391 27.044 75.6793 27.615C76.8387 28.6359 77.998 29.0166 80.0399 29.0166C81.3896 29.0166 81.9779 28.9301 82.7393 28.6359C84.0371 28.1341 85.1618 27.0267 85.6809 25.7462L86.0962 24.7252V13.2182V1.7111H83.7602H81.4242L81.3723 12.751L81.3377 23.7735L80.7666 24.1369C80.1264 24.5349 79.2439 24.483 78.7075 23.9985C78.3614 23.687 77.7731 22.5277 76.6656 19.9494C76.06 18.5305 75.8697 18.1152 74.6065 15.3985C74.122 14.3775 73.724 13.4777 73.724 13.4258C73.724 13.3739 73.5682 13.0105 73.3952 12.6298C73.0318 11.8512 71.959 9.51514 71.5264 8.54613C71.3706 8.21735 71.1111 7.62902 70.938 7.24834C70.765 6.86765 70.4708 6.15819 70.2978 5.69099C69.1558 2.78394 67.6157 1.38233 65.0547 0.949729C63.705 0.724779 63.7223 0.724779 62.3726 1.01894Z" fill="white"/>
<path d="M151.834 1.00138C150.588 1.24364 149.342 1.93579 148.736 2.73177C148.269 3.3374 147.612 4.80823 146.435 7.85371C145.275 10.8646 144.168 13.6851 143.164 16.2461C142.645 17.5785 142.04 19.1358 141.815 19.7069C141.313 20.9873 139.6 25.3825 139.011 26.8534C138.769 27.459 138.631 28.0646 138.683 28.1858C138.752 28.3934 139.219 28.4453 141.019 28.4453C143.113 28.4453 143.303 28.4107 143.632 28.0646C143.822 27.857 143.978 27.632 143.978 27.5455C143.978 27.4763 144.255 26.6803 144.601 25.7978C145.968 22.3024 146.383 21.2123 146.833 20.0529C147.075 19.3781 147.508 18.2879 147.785 17.6304C148.321 16.298 149.948 12.1105 151.038 9.23802C151.418 8.2344 151.868 7.12695 152.041 6.78087C152.56 5.69073 153.841 5.46578 154.429 6.38288C154.585 6.60783 155.952 10.1724 157.492 14.2908C159.032 18.4091 160.52 22.4063 160.797 23.1676C161.091 23.929 161.472 24.9845 161.68 25.5037C162.372 27.4071 162.718 28.1858 162.908 28.3069C163.133 28.4626 167.199 28.4972 167.58 28.3415C167.892 28.2204 167.944 27.7359 167.701 27.4763C167.615 27.3898 167.251 26.5419 166.905 25.5902C166.559 24.6385 166.196 23.6694 166.092 23.4272C166.006 23.1849 164.708 19.7588 163.237 15.8135C161.749 11.8682 160.399 8.2344 160.209 7.76719C160.036 7.28269 159.707 6.40019 159.482 5.77725C158.288 2.4376 157.25 1.39937 154.689 0.94947C153.356 0.72452 153.218 0.72452 151.834 1.00138Z" fill="white"/>
<path d="M0.943767 1.86691C0.891855 1.98804 0.891855 6.45244 0.926463 11.7647C0.961071 19.1189 1.03029 21.6106 1.20333 22.1297C2.25886 25.331 3.81621 26.9056 7.01742 27.9784C7.96914 28.2899 8.64399 28.3245 14.51 28.3937C19.407 28.463 21.0163 28.4283 21.2066 28.2726C21.4142 28.0996 21.4662 27.6151 21.4662 26.1269C21.4662 25.0714 21.3796 24.0851 21.2931 23.9466C21.1547 23.7217 20.1857 23.6698 14.8561 23.6006C8.83433 23.5141 8.54016 23.4967 7.88262 23.1334C7.00012 22.6662 6.34257 21.974 5.94458 21.0915C5.65042 20.4513 5.63311 19.638 5.59851 11.1418C5.5639 6.05445 5.5466 1.83231 5.5466 1.74579C5.5466 1.67657 4.52567 1.62466 3.29709 1.62466C1.5494 1.62466 1.01298 1.67657 0.943767 1.86691Z" fill="white"/>
<path d="M36.4688 1.74545C36.3996 1.79736 36.3477 7.7845 36.3477 15.0521C36.3477 26.9053 36.3823 28.2377 36.6245 28.3415C36.7803 28.3934 37.7493 28.4453 38.7702 28.4453C40.466 28.4453 40.6736 28.4107 40.8467 28.1165C41.037 27.7532 41.1062 2.403 40.9159 1.90118C40.8294 1.67623 40.466 1.62432 38.701 1.62432C37.5243 1.62432 36.5207 1.67623 36.4688 1.74545Z" fill="white"/>
<path d="M108.159 1.74511C105.944 2.10849 103.695 3.56202 102.847 5.15397C102.414 5.98456 101.93 7.87068 101.93 8.78779C101.93 9.70489 102.345 11.4526 102.726 12.214C103.106 12.9407 104.006 13.8924 104.733 14.3596C105.096 14.5846 105.39 14.8614 105.39 14.948C105.39 15.0345 105.096 15.2594 104.75 15.4498C103.608 16.0208 102.743 17.2148 102.189 18.8932C101.774 20.191 101.895 22.6309 102.449 24.0325C102.951 25.313 104.231 26.6973 105.442 27.2856C107.605 28.3412 107.588 28.3238 115.98 28.4104C121.414 28.445 123.819 28.4104 124.061 28.2719C124.39 28.0989 124.425 27.9259 124.425 26.109C124.425 24.5516 124.373 24.0844 124.148 23.8768C123.906 23.6345 122.988 23.5999 116.586 23.5999C109.526 23.5999 109.284 23.5826 108.54 23.2365C106.636 22.3021 106.169 19.5508 107.692 18.08C107.986 17.7858 108.505 17.4397 108.834 17.3359C109.267 17.1975 111.776 17.0936 116.724 17.0244L123.992 16.9379V14.8614V12.785L116.551 12.6985C109.44 12.6119 109.076 12.5946 108.419 12.2486C107.502 11.7641 106.948 10.8123 106.948 9.67028C106.948 7.99181 107.83 6.83245 109.388 6.48637C109.838 6.38255 113.039 6.29603 117.105 6.29603C121.639 6.29603 124.096 6.22681 124.165 6.12299C124.321 5.86343 124.338 2.07389 124.182 1.83163C124.096 1.6759 122.141 1.62399 116.327 1.64129C112.07 1.65859 108.401 1.71051 108.159 1.74511Z" fill="white"/>
<path d="M190.178 1.88446C187.236 2.5247 184.589 4.54926 183.291 7.17944C182.097 9.58468 181.803 11.1766 181.803 15.0354C181.803 17.8559 181.855 18.5481 182.183 19.8805C183.274 24.2238 185.852 26.9232 190.005 28.0479C190.939 28.3075 191.874 28.3594 195.542 28.3594C200.318 28.3594 200.872 28.2729 202.585 27.2865C203.536 26.7328 204.851 25.2793 205.267 24.293C206.392 21.6974 206.357 18.029 205.198 15.7622C204.678 14.7239 203.692 13.7549 202.567 13.1666L201.512 12.6129L197.359 12.5263C195.075 12.4744 193.068 12.4917 192.912 12.5782C192.652 12.6994 192.6 12.9589 192.6 14.3952C192.6 15.3123 192.67 16.1775 192.756 16.3159C192.877 16.5062 193.517 16.5408 195.819 16.5235C199.73 16.5062 200.456 16.6966 201.391 18.0636C201.702 18.5308 201.771 18.8769 201.771 19.9151C201.771 21.4378 201.408 22.303 200.439 23.0298L199.816 23.5143L195.819 23.5662C192.133 23.6181 191.735 23.5835 190.68 23.2547C187.755 22.303 186.371 19.6382 186.371 14.9489C186.371 10.8652 187.6 8.09655 189.866 7.02371C191.181 6.41807 192.566 6.29695 198.587 6.29695C203.277 6.29695 204.367 6.24504 204.523 6.05469C204.661 5.89896 204.713 5.12028 204.678 3.77058L204.627 1.71142L197.965 1.67681C192.825 1.65951 191.043 1.71142 190.178 1.88446Z" fill="white"/>
<path d="M227.035 1.74545C226.066 1.90118 224.423 2.54143 223.661 3.04324C222.675 3.70079 221.637 5.05049 221.204 6.20985C220.771 7.40381 220.771 10.1897 221.204 11.4356C221.55 12.4219 222.796 13.9447 223.592 14.36C224.284 14.706 224.215 14.9656 223.332 15.6058C222.346 16.298 221.429 17.5439 221.066 18.7205C220.598 20.1568 220.771 23.0292 221.377 24.2924C222.225 26.0574 223.592 27.1821 225.824 27.9608C226.897 28.3242 227.26 28.3415 234.632 28.4107C238.854 28.4453 242.488 28.428 242.713 28.3761C243.128 28.2723 243.128 28.2377 243.128 26.1439C243.128 24.725 243.059 23.9463 242.92 23.8079C242.765 23.6521 240.879 23.6002 235.48 23.6002C227.814 23.6002 227.52 23.5656 226.637 22.7696C225.34 21.6103 225.322 18.9282 226.603 17.9246C227.555 17.1805 228.022 17.1286 235.601 17.0248L242.869 16.9382L242.92 15.2079C242.955 14.2561 242.92 13.3044 242.869 13.0795L242.782 12.6988H235.653C230.617 12.6988 228.351 12.6296 227.849 12.4911C224.942 11.626 225.028 7.42112 227.97 6.55592C228.662 6.34828 230.15 6.29637 235.791 6.29637C241.519 6.29637 242.782 6.26176 242.938 6.05411C243.076 5.89838 243.128 5.1197 243.093 3.77L243.042 1.71084L235.255 1.69354C230.981 1.67623 227.278 1.71084 227.035 1.74545Z" fill="white"/>
<path d="M151.54 16.2282C150.294 16.7819 148.996 18.7719 148.996 20.1216C148.996 22.3538 151.367 24.5686 153.409 24.2399C156.714 23.7035 158.063 19.8793 155.848 17.2664C154.931 16.159 152.838 15.6572 151.54 16.2282Z" fill="white"/>
<path d="M1.13076 54.4179C0.8539 54.6947 0.819292 58.069 1.07885 58.5708C1.25189 58.8823 1.52875 58.8996 8.22535 58.8996C12.7763 58.8996 15.4238 58.9688 15.8737 59.0899C17.4483 59.5225 18.2789 60.6992 18.2789 62.4469C18.2789 63.762 17.7771 64.7829 16.7908 65.4231L16.0813 65.9076L9.83461 65.9942C4.19355 66.0807 3.51869 66.1153 2.93036 66.4095C2.11708 66.8074 1.47684 67.5515 1.26919 68.3821C1.07885 69.0742 0.975027 80.5813 1.16537 80.8755C1.3211 81.135 5.28369 81.1004 5.54325 80.8409C5.69898 80.6851 5.75089 79.3181 5.75089 75.7362V70.8392L6.20079 70.6662C6.44305 70.5624 8.77907 70.4932 11.5477 70.4932C16.2889 70.4932 16.4793 70.4759 17.6906 70.0779C20.3554 69.1781 22.0511 67.3093 22.7779 64.4887C23.695 60.976 22.4491 57.3595 19.7324 55.5772C17.8117 54.314 17.9674 54.3314 9.21167 54.2621C3.06879 54.2275 1.2865 54.2621 1.13076 54.4179Z" fill="white"/>
<path d="M38.3519 54.4528C38.3173 54.5739 38.3 55.6121 38.3173 56.7542L38.3692 58.8134L46.2425 58.8999C51.7797 58.9691 54.2542 59.0556 54.583 59.194C56.9709 60.2669 57.2651 63.8661 55.0675 65.3888L54.3234 65.9079L47.6441 65.9945C40.2208 66.0983 40.2208 66.0983 39.1825 67.275C38.8884 67.621 38.5769 68.1228 38.5077 68.3824C38.4212 68.642 38.3692 71.5663 38.3692 74.906V80.9623L40.5149 81.0142C41.6916 81.0315 42.7298 80.9969 42.8336 80.8931C42.9202 80.8066 42.9721 78.6782 42.9548 75.9788C42.9375 71.376 42.9548 71.1856 43.3008 70.8395C43.6296 70.5108 43.8546 70.4935 46.9174 70.4935C49.7725 70.4935 50.2224 70.5281 50.5339 70.7876C50.8626 71.0645 52.0047 72.9852 55.1713 78.5398C55.7769 79.578 56.3999 80.5816 56.5556 80.7374C56.8152 80.9969 57.1959 81.0488 59.1685 81.0488C61.7295 81.0488 61.9544 80.945 61.3315 80.0625C61.1411 79.8029 60.3105 78.3667 59.48 76.8959C58.6494 75.4251 57.5592 73.5043 57.0574 72.6565C55.725 70.3723 55.725 70.3723 55.9673 70.1993C56.0884 70.1301 56.5556 69.8878 57.0228 69.6802C59.5319 68.5035 61.2969 65.4234 61.2969 62.1876C61.2969 58.2596 59.0647 55.3526 55.3789 54.4874C53.8562 54.1413 38.4904 54.1067 38.3519 54.4528Z" fill="white"/>
<path d="M85.6073 54.3486C82.4233 54.8331 79.4817 56.8057 78.0282 59.4186C76.3324 62.4641 75.796 67.1707 76.6092 71.7909C77.4398 76.4456 80.0873 79.4738 84.396 80.6331C85.4342 80.91 86.2302 80.9619 90.1063 80.9619C95.1763 80.9619 96.0242 80.8235 98.2391 79.6987C99.7272 78.9201 101.475 77.207 102.254 75.7361C103.551 73.279 104.14 69.576 103.828 65.648C103.378 59.7301 100.852 56.1828 96.0761 54.6946C95.0898 54.3832 94.4149 54.3313 90.5389 54.2967C88.1163 54.2794 85.9014 54.2967 85.6073 54.3486ZM93.8266 59.0898C97.495 59.6782 99.1908 62.3776 99.1908 67.6379C99.1908 73.0194 97.4604 75.6496 93.5843 76.186C91.8713 76.4283 88.3413 76.4283 86.6282 76.186C83.1674 75.7015 81.4543 73.7116 81.0044 69.6279C80.5891 65.6999 81.4716 61.945 83.1328 60.5434C83.9461 59.8685 85.2266 59.2629 86.2475 59.0898C87.5626 58.8822 92.4942 58.8649 93.8266 59.0898Z" fill="white"/>
<path d="M117.776 54.4528C117.741 54.5739 117.724 55.6122 117.741 56.7542L117.793 58.8134L121.427 58.8653C124.628 58.8999 125.095 58.9345 125.286 59.1941C125.459 59.4363 125.493 61.7204 125.493 70.1301C125.476 76.273 125.528 80.8066 125.632 80.9104C125.718 80.9969 126.756 81.0315 127.933 81.0142L130.079 80.9623L130.165 69.9744C130.217 63.9353 130.269 58.9691 130.304 58.9518C130.321 58.9172 132.034 58.8826 134.111 58.8653L137.866 58.8134V56.5639V54.3144L127.864 54.2625C119.731 54.2278 117.845 54.2625 117.776 54.4528Z" fill="white"/>
<path d="M161.572 54.3313C158.664 54.9888 157.124 55.7156 155.706 57.0653C153.871 58.8303 152.729 61.3566 152.297 64.5232C152.002 66.7727 152.193 71.0468 152.66 72.8291C153.767 76.9647 156.277 79.5949 160.187 80.6331C161.225 80.91 162.039 80.9619 165.898 80.9619C169.774 80.9619 170.57 80.91 171.608 80.6331C175.086 79.6814 177.508 77.5531 178.737 74.3345C180.069 70.8218 180.156 65.1635 178.945 61.6162C177.733 58.0516 175.536 55.8713 171.954 54.6946C171.054 54.4005 170.345 54.3486 166.417 54.2967C163.942 54.2794 161.762 54.2794 161.572 54.3313ZM169.531 59.0725C172.179 59.5051 173.978 61.1144 174.619 63.6407C175.172 65.8556 175.155 69.9047 174.567 71.8601C174.255 72.9329 173.269 74.4903 172.629 74.9402C171.054 76.0476 169.479 76.3764 165.846 76.3764C161.07 76.3591 159.114 75.615 157.886 73.3136C157.107 71.8428 156.813 70.32 156.813 67.7591C156.813 62.4468 158.353 59.8685 161.918 59.1417C163.181 58.8822 168.112 58.8303 169.531 59.0725Z" fill="white"/>
<path d="M203.742 54.4186C202.53 54.6262 200.731 55.3357 199.623 56.0624C197.737 57.3083 196.232 59.4367 195.505 61.8419C195.107 63.157 194.709 65.9949 194.709 67.5695C194.709 69.1269 195.107 72.1204 195.505 73.4355C196.578 77.052 199.087 79.5265 202.755 80.582C203.845 80.9108 204.589 80.9454 210.334 81.0146C215.11 81.0665 216.771 81.0319 216.962 80.8762C217.152 80.7031 217.204 80.2186 217.204 78.7997C217.204 77.7615 217.152 76.8098 217.1 76.654C217.014 76.4118 216.373 76.3772 211.753 76.3772C208.864 76.3772 205.905 76.2907 205.178 76.1868C201.907 75.7369 200.315 74.0758 199.623 70.4073C199.295 68.6423 199.381 65.5623 199.779 63.9184C200.471 61.1325 202.184 59.5232 204.936 59.0906C205.541 58.9868 208.466 58.9003 211.425 58.9003C215.37 58.9003 216.841 58.8484 216.996 58.6926C217.221 58.4677 217.291 55.0242 217.1 54.5051C217.014 54.2628 216.304 54.2282 210.819 54.2455C207.427 54.2628 204.243 54.332 203.742 54.4186Z" fill="white"/>
<path d="M240.997 54.5046C239.076 54.9026 237.034 55.9927 235.771 57.2732C233.418 59.6612 232.397 62.9143 232.414 67.8978C232.432 73.8503 234.145 77.5014 237.865 79.5779C239.872 80.7027 240.997 80.9103 245.288 80.9968C247.728 81.066 249.545 81.0141 250.462 80.8757C256.19 80.0451 259.339 76.4113 259.962 69.8531C260.325 66.1674 259.824 62.672 258.56 60.0072C257.557 57.9308 255.774 56.1658 253.802 55.2833C251.916 54.4527 251.189 54.3489 246.621 54.297C243.212 54.245 241.931 54.297 240.997 54.5046ZM249.891 59.0728C251.656 59.367 253.214 60.2841 253.975 61.4954C255.774 64.3332 255.774 70.926 253.992 73.7638C253.179 75.0443 251.622 75.9268 249.666 76.1863C247.953 76.4286 244.423 76.4286 242.71 76.1863C239.993 75.8057 238.436 74.5079 237.519 71.8777C237.034 70.4934 237.034 65.008 237.519 63.4853C238.28 61.0455 239.993 59.4881 242.329 59.0901C243.627 58.8825 248.576 58.8652 249.891 59.0728Z" fill="white"/>
<path d="M275.777 54.4011C275.726 54.4877 275.674 58.8136 275.691 64.0048C275.708 74.041 275.743 74.5775 276.556 76.429C277.058 77.571 278.684 79.2495 279.827 79.8378C281.99 80.928 282.093 80.928 289.413 81.0145L296.109 81.0664V78.7304V76.3771H290.728C287.44 76.3771 284.879 76.2905 284.135 76.1694C282.612 75.9272 281.488 75.2177 280.882 74.1276L280.449 73.3489L280.363 63.8318L280.276 54.3146L278.079 54.2627C276.729 54.2281 275.847 54.28 275.777 54.4011Z" fill="white"/>
</svg>
