<svg width="236" height="56" viewBox="0 0 236 56" fill="none" xmlns="http://www.w3.org/2000/svg">
<path d="M98.843 10.4139C98.11 10.6256 97.5562 11.098 97.1815 11.7821C96.8232 12.4336 96.8232 12.5802 96.8232 18.6396V24.8293H98.0448H99.2665L99.3153 18.9817C99.3316 14.8606 99.4131 13.0689 99.5434 12.906C99.6411 12.7757 99.9506 12.6943 100.227 12.7268C100.846 12.792 100.879 12.8572 103.518 18.8025C104.544 21.1318 105.521 23.2981 105.684 23.6076C106.613 25.3505 109.496 25.7903 110.978 24.4383C111.874 23.6239 111.89 23.4936 111.89 16.9782C111.89 13.6879 111.89 10.8862 111.89 10.7722C111.89 10.6419 111.532 10.5767 110.668 10.5767H109.447V16.4081C109.447 21.8647 109.431 22.272 109.154 22.5163C108.323 23.2656 107.916 22.7606 106.189 18.8839C103.192 12.173 102.948 11.6681 102.557 11.2446C101.775 10.4139 100.097 10.0229 98.843 10.4139Z" fill="white"/>
<path d="M146.471 10.4309C145.428 10.7241 145.054 11.457 142.415 18.2331C141.03 21.7677 139.907 24.7323 139.907 24.7974C139.907 24.8626 140.509 24.9114 141.242 24.8789L142.594 24.83L144.793 19.1616C146.015 16.0341 147.106 13.3465 147.204 13.1673C147.416 12.8416 147.823 12.7764 148.181 13.0045C148.295 13.0696 149.354 15.6921 150.527 18.8195C151.683 21.9469 152.726 24.6019 152.807 24.6997C153.003 24.944 155.316 24.9929 155.462 24.7485C155.511 24.6671 155.478 24.4716 155.397 24.3088C155.169 23.8527 153.182 18.6403 151.471 13.9981C150.478 11.2942 150.087 10.7078 149.044 10.4146C148.328 10.2191 147.171 10.2191 146.471 10.4309Z" fill="white"/>
<path d="M66.4776 15.9854L66.5264 21.4095L67.0151 22.3868C67.5526 23.4455 68.4648 24.2763 69.5073 24.602C69.8656 24.7161 71.5596 24.8301 73.7423 24.8626L77.3747 24.9441L77.3258 23.6573L77.2769 22.3868L73.8563 22.3053C70.338 22.2239 70.0774 22.175 69.4584 21.4909C69.1489 21.1488 69.1326 20.8231 69.0512 15.8876L68.9697 10.659L67.6992 10.6101L66.4287 10.5613L66.4776 15.9854Z" fill="white"/>
<path d="M85.4211 10.7727C85.3723 10.8867 85.356 14.0956 85.3723 17.9071L85.4211 24.8298L86.6102 24.8786L87.783 24.9275V17.7442V10.5772H86.6428C85.8772 10.5772 85.47 10.6424 85.4211 10.7727Z" fill="white"/>
<path d="M123.471 10.7564C121.761 11.0985 120.588 12.3527 120.409 14.0304C120.279 15.3172 120.588 16.1805 121.452 17.0438C122.136 17.728 122.168 17.8094 121.891 17.956C120.947 18.4772 120.36 19.65 120.36 21.0345C120.36 22.5982 121.044 23.6896 122.429 24.3737L123.374 24.8298L127.755 24.8787C130.524 24.9112 132.169 24.8787 132.235 24.7809C132.283 24.6832 132.3 24.1131 132.251 23.4941L132.169 22.3865L128.097 22.3051C123.748 22.2236 123.406 22.1585 123.129 21.3929C122.918 20.8554 122.918 20.0898 123.129 19.6826C123.52 18.9659 124.025 18.8844 128.179 18.8844C130.329 18.8844 132.088 18.8356 132.088 18.7541C132.169 17.5651 132.137 16.7181 132.039 16.6529C131.974 16.6203 130.361 16.5878 128.456 16.5878C124.758 16.604 123.927 16.5063 123.39 15.9525C122.869 15.4313 122.918 14.3073 123.504 13.721L123.944 13.2649L128.065 13.1834L132.169 13.102V11.8803V10.6587L128.179 10.6424C125.98 10.6261 123.862 10.675 123.471 10.7564Z" fill="white"/>
<path d="M167.646 10.7564C164.975 11.2776 163.379 13.1671 162.988 16.2782C162.646 19.0799 163.232 21.6046 164.6 23.1031C165.854 24.504 167.614 24.9926 170.904 24.8786C173.201 24.7972 174.031 24.5203 174.878 23.5592C176.198 22.0607 176.23 18.9007 174.96 17.5324C174.08 16.5877 173.543 16.4411 171.018 16.4411H168.738V17.4999V18.5586H170.432C171.344 18.5586 172.337 18.6401 172.631 18.7378C173.901 19.1776 173.966 21.5394 172.728 22.1095C172.468 22.2236 171.49 22.305 170.155 22.305C167.679 22.305 166.962 22.077 166.229 21.1159C165.007 19.5197 165.121 15.5941 166.441 14.0955C167.109 13.3463 167.5 13.2648 171.344 13.1834L175.009 13.1019L175.058 11.8314L175.106 10.5772L171.718 10.5935C169.861 10.6098 168.021 10.6749 167.646 10.7564Z" fill="white"/>
<path d="M186.704 10.8053C185.482 11.0985 184.651 11.7175 184.212 12.6134C183.414 14.2748 183.642 15.8874 184.847 17.0602C185.531 17.728 185.564 17.7932 185.254 17.956C184.309 18.4773 183.723 19.6501 183.723 21.0346C183.723 22.5983 184.407 23.6896 185.792 24.3738L186.736 24.8298H191.134H195.532V23.6082V22.3865L191.46 22.3051C189.229 22.2562 187.258 22.1585 187.095 22.0771C186.46 21.7676 186.117 20.3993 186.492 19.6989C186.85 19.0311 187.241 18.9659 191.46 18.8845L195.532 18.8031V17.7443V16.6855L191.542 16.6041C188.04 16.5389 187.486 16.4901 187.095 16.2295C186.215 15.6593 186.134 14.4051 186.916 13.6559C187.323 13.2649 187.372 13.2649 191.428 13.1835L195.532 13.102V11.8804V10.6587L191.542 10.6262C188.772 10.6099 187.29 10.6587 186.704 10.8053Z" fill="white"/>
<path d="M66.4776 35.0295L66.5264 36.3L70.6149 36.3814C74.345 36.4628 74.7522 36.4954 75.0617 36.7723C75.8272 37.4727 75.7947 38.8898 74.9802 39.6554C74.573 40.0463 74.4916 40.0463 70.9732 40.1278L67.3897 40.2092L66.9174 40.7468L66.445 41.268V44.7049V48.1255L67.6341 48.0766L68.8068 48.0278L68.8883 45.3401L68.9697 42.6525L71.9017 42.5711C74.5079 42.4896 74.9314 42.4408 75.6969 42.0987C76.1693 41.887 76.8046 41.4309 77.0977 41.0725C78.6452 39.2645 78.4334 36.0231 76.658 34.7363C75.4852 33.8892 74.7685 33.7752 70.4031 33.7752H66.4287L66.4776 35.0295Z" fill="white"/>
<path d="M86.3497 35.0294L86.3986 36.3L90.7476 36.3814L95.113 36.4628L95.5528 36.9189C95.9274 37.2936 96.0088 37.5053 96.0088 38.1731C96.0088 38.8736 95.9274 39.0527 95.4713 39.5088L94.9501 40.0463L91.1386 40.1278C86.0402 40.2418 86.2846 39.9975 86.3497 44.8515L86.3986 48.0278H87.5388H88.679L88.7604 45.3401L88.8419 42.6525L90.8454 42.6036L92.8326 42.5548L93.2072 43.1575C93.4027 43.4995 94.1194 44.7212 94.8035 45.8939L96.0414 48.0278L97.3608 48.0766C98.1752 48.1092 98.6965 48.0603 98.6965 47.9626C98.6965 47.816 96.921 44.6397 95.9111 42.962L95.6016 42.4408L96.302 42.0173C97.882 41.1051 98.6313 39.6228 98.501 37.7008C98.3707 35.9905 97.7517 35.0132 96.2532 34.2313C95.5365 33.873 95.3736 33.8567 90.9105 33.8078L86.3008 33.7589L86.3497 35.0294Z" fill="white"/>
<path d="M111.239 33.9381C109.545 34.2965 108.095 35.3878 107.346 36.8375C106.938 37.6356 106.515 39.688 106.515 40.8934C106.515 44.8841 108.209 47.3599 111.32 47.93C112.542 48.1581 115.311 48.1581 116.532 47.93C119.236 47.4251 120.816 45.5845 121.207 42.4408C121.582 39.5414 120.93 36.9352 119.481 35.4693C118.194 34.1988 117.265 33.9056 114.333 33.8404C113.03 33.8078 111.646 33.8567 111.239 33.9381ZM116.956 36.7561C118.373 37.5053 119.008 39.46 118.699 42.0987C118.487 43.8742 117.95 44.7538 116.728 45.2587C115.816 45.6334 111.874 45.6008 110.994 45.1936C109.561 44.542 109.105 43.4833 109.089 40.9097C109.089 39.3948 109.137 39.0528 109.496 38.2872C110.212 36.7072 110.913 36.3977 113.943 36.3977C116.044 36.3814 116.304 36.414 116.956 36.7561Z" fill="white"/>
<path d="M128.733 33.9873C128.684 34.1176 128.668 34.6877 128.7 35.2578L128.749 36.3003L130.541 36.3329C131.534 36.3491 132.43 36.3654 132.528 36.3817C132.691 36.3817 132.74 37.7174 132.772 42.1968L132.821 48.0281H134.043H135.264L135.346 42.1968L135.427 36.3491L137.382 36.3329L139.337 36.3003V35.0786V33.857L134.075 33.8081C129.743 33.7755 128.814 33.8081 128.733 33.9873Z" fill="white"/>
<path d="M151.7 33.9384C148.605 34.59 147.025 36.9518 147.025 40.9425C147.009 44.4609 148.214 46.6924 150.641 47.6534C151.455 47.9792 151.846 48.0118 154.241 48.0281C156.423 48.0281 157.091 47.9792 157.824 47.7349C159.518 47.1648 160.658 46.0083 161.343 44.2003C161.701 43.2555 161.766 39.0856 161.44 38.092C160.789 36.1537 159.518 34.7203 157.971 34.1991C156.977 33.857 152.856 33.6941 151.7 33.9384ZM157.254 36.6912C158.671 37.3265 159.192 38.483 159.192 40.9425C159.192 42.7343 158.964 43.6464 158.362 44.3794C157.58 45.3079 156.896 45.5033 154.322 45.5033C151.537 45.5033 150.885 45.2753 150.103 43.9885C149.68 43.3207 149.615 43.0275 149.55 41.6267C149.419 38.8902 149.957 37.4079 151.341 36.7238C151.96 36.4306 152.319 36.3817 154.322 36.3817C156.179 36.3817 156.717 36.4469 157.254 36.6912Z" fill="white"/>
<path d="M174.487 33.9381C173.315 34.1824 172.191 34.7688 171.523 35.4855C170.236 36.87 169.796 38.2871 169.796 40.9422C169.796 43.5483 170.236 44.9817 171.458 46.3337C172.191 47.1481 173.249 47.7019 174.52 47.93C175.742 48.158 181.557 48.1743 181.638 47.9463C181.671 47.8648 181.654 47.2947 181.606 46.692L181.524 45.5844L178.022 45.503C174.862 45.4215 174.471 45.389 173.95 45.0795C172.777 44.3954 172.272 43.1248 172.272 40.9422C172.272 38.7595 172.777 37.489 173.95 36.8049C174.471 36.4954 174.862 36.4628 178.022 36.3814L181.524 36.2999L181.606 35.1923C181.654 34.5896 181.671 34.0195 181.638 33.9381C181.573 33.7426 175.497 33.7426 174.487 33.9381Z" fill="white"/>
<path d="M194.799 33.873C191.737 34.4594 190.108 36.4792 189.815 40.0952C189.473 44.3628 191.248 47.3274 194.555 47.93C195.777 48.1581 198.546 48.1581 199.767 47.93C202.243 47.474 203.774 45.9103 204.328 43.2878C204.996 40.1115 204.279 36.8701 202.536 35.2575C201.396 34.1988 200.321 33.9056 197.568 33.8404C196.265 33.8241 195.027 33.8404 194.799 33.873ZM200.174 36.7398C201.478 37.4076 202.015 38.6293 202.015 40.9422C202.015 43.3041 201.429 44.5909 200.109 45.1936C199.555 45.4379 199.034 45.503 197.161 45.503C195.109 45.503 194.799 45.4705 194.148 45.1284C192.812 44.4606 192.356 43.3855 192.356 40.9097C192.356 39.7206 192.437 39.1016 192.682 38.4501C193.333 36.7235 194.05 36.3977 197.161 36.3814C199.23 36.3814 199.523 36.414 200.174 36.7398Z" fill="white"/>
<path d="M212.945 34.0038C212.896 34.1178 212.879 36.5937 212.912 39.4931C212.961 44.0865 213.01 44.852 213.254 45.3896C213.694 46.3343 214.59 47.2139 215.534 47.6374C216.333 47.9957 216.626 48.0283 220.095 48.0772L223.809 48.1423L223.76 46.8555L223.711 45.585L220.291 45.5036C215.144 45.3733 215.42 45.7479 215.372 38.9881C215.339 36.2517 215.323 33.9712 215.323 33.8898C215.323 33.8247 214.802 33.7758 214.183 33.7758C213.352 33.7758 213.01 33.8409 212.945 34.0038Z" fill="white"/>
<path d="M146.634 18.5586C145.591 19.1939 145.217 20.2852 145.689 21.344C146.406 22.9077 148.474 23.0706 149.354 21.6046C149.989 20.5621 149.598 19.0962 148.523 18.5261C147.823 18.1514 147.285 18.1514 146.634 18.5586Z" fill="white"/>
<path d="M40.7278 6.39152C40.7135 6.42015 40.5882 6.56328 40.4523 6.71357C40.3163 6.86385 40.1553 7.0535 40.0944 7.1358C40.0336 7.2181 39.9406 7.34334 39.8869 7.41133C39.6972 7.66896 39.2714 8.36315 39.0889 8.7174C38.9852 8.9142 38.8671 9.14321 38.8241 9.22194C38.7848 9.30066 38.749 9.3758 38.749 9.38654C38.749 9.40085 38.6918 9.53324 38.6238 9.67995C38.5558 9.82666 38.4985 9.96264 38.4985 9.98053C38.4985 10.002 38.4484 10.1344 38.3912 10.2811C38.3303 10.4278 38.2659 10.6031 38.2516 10.6711C38.2337 10.7391 38.1872 10.893 38.1479 11.0111C38.0477 11.3045 37.8365 12.0953 37.765 12.4424C37.7328 12.5998 37.6791 12.8718 37.6433 13.0507C37.604 13.226 37.5574 13.5087 37.536 13.6769C37.5145 13.8451 37.4751 14.1421 37.4465 14.3389C37.2676 15.5555 37.2569 18.6614 37.4215 19.7957C37.4429 19.9245 37.4823 20.2036 37.5109 20.4219C37.5431 20.6366 37.5932 20.9694 37.6219 21.1555C37.7328 21.8389 37.833 22.8337 37.9332 24.2328C37.994 25.0737 37.9833 26.7125 37.9117 27.6142C37.7793 29.2603 37.79 29.1779 37.6397 29.9222C37.604 30.1083 37.5574 30.3516 37.5395 30.459C37.5217 30.5663 37.4823 30.7452 37.4537 30.8526C37.4215 30.9599 37.3714 31.171 37.3356 31.3178C37.3034 31.4645 37.264 31.6004 37.2497 31.6219C37.2354 31.6398 37.1925 31.7543 37.1603 31.8724C37.0815 32.1336 36.8811 32.6668 36.7666 32.9101C36.2585 33.9907 35.9472 34.4953 35.3783 35.1465C35.1528 35.4077 34.3155 36.245 33.9899 36.5349C33.6965 36.7961 33.0882 37.2863 32.8091 37.4831C32.759 37.5189 32.6624 37.5869 32.5944 37.6334C32.5264 37.6835 32.4441 37.7408 32.4155 37.7586C32.3868 37.7801 32.2831 37.8517 32.1829 37.9197C32.0863 37.9877 31.9467 38.0735 31.8787 38.1093C31.8107 38.1415 31.6891 38.2131 31.6104 38.2632C31.5316 38.3133 31.3134 38.4314 31.1273 38.5244C30.9412 38.6174 30.773 38.7069 30.7516 38.7212C30.7337 38.7355 30.6442 38.7785 30.5548 38.8107C30.4653 38.8464 30.315 38.9108 30.2148 38.9574C30.1182 39.0003 30.0037 39.0468 29.9679 39.0611C29.9321 39.0754 29.9107 39.0933 29.9214 39.1077C29.9644 39.147 30.6478 39.0397 31.0378 38.9323C31.2561 38.8715 31.4959 38.8071 31.5746 38.7928C31.707 38.7677 31.8644 38.714 32.6302 38.417C32.92 38.3025 33.7502 37.8982 34.1008 37.6942C34.5195 37.4509 34.77 37.2935 34.8129 37.2434C34.838 37.2112 34.8702 37.1861 34.8881 37.1861C34.931 37.1861 35.5071 36.7782 35.7075 36.6064C35.7969 36.5313 35.915 36.4311 35.9723 36.3882C36.1011 36.288 37.0994 35.3004 37.1889 35.1823C37.6719 34.5382 37.9081 34.1983 38.0727 33.912C38.2981 33.5112 38.3983 33.3287 38.452 33.2142C38.4806 33.1463 38.5629 32.9745 38.6273 32.8385C38.6953 32.699 38.749 32.5737 38.749 32.5594C38.749 32.5415 38.7991 32.4234 38.8564 32.2946C38.9172 32.1694 38.9637 32.0477 38.9637 32.0298C38.9637 32.0084 39.0031 31.8939 39.0496 31.7722C39.1533 31.5038 39.3323 30.8884 39.4468 30.4053C39.4933 30.2085 39.547 29.9831 39.5684 29.9043C39.5899 29.8256 39.6328 29.6002 39.665 29.4034C39.6972 29.2066 39.7366 28.974 39.7509 28.8845C40.0551 27.1312 40.0551 23.9322 39.7509 21.9964C39.733 21.8962 39.6972 21.6385 39.6686 21.4238C39.6364 21.2056 39.572 20.837 39.5183 20.6008C39.4682 20.3682 39.4146 20.0605 39.3967 19.921C39.3788 19.785 39.3323 19.4844 39.2929 19.259C39.2535 19.0336 39.2106 18.7115 39.1963 18.5433C39.1856 18.3752 39.1426 17.9744 39.1068 17.6488C39.0102 16.8258 38.9637 15.8561 38.9637 14.7683C38.9637 13.8522 39.0353 12.5748 39.1068 12.1561C39.1247 12.038 39.1569 11.7732 39.1784 11.5657C39.2464 10.8894 39.665 8.97861 39.7867 8.79254C39.801 8.77107 39.8404 8.66015 39.8726 8.54206C39.9084 8.42398 39.9728 8.23075 40.0229 8.11267C40.0694 7.99459 40.1087 7.88366 40.1087 7.86935C40.1087 7.80494 40.6312 6.73146 40.7457 6.56686C40.828 6.44162 40.8495 6.34143 40.7886 6.34143C40.7707 6.34143 40.7421 6.3629 40.7278 6.39152Z" fill="white"/>
<path d="M53.0621 19.0548C53.012 19.0834 52.9405 19.1228 52.9011 19.1443C52.783 19.2122 52.1711 19.4735 52.1318 19.4735C52.1139 19.4735 52.0137 19.5128 51.9099 19.5593C51.6952 19.656 51.0869 19.8528 50.7792 19.9207C50.6683 19.9458 50.407 20.0066 50.1995 20.0567C49.0187 20.3394 47.8092 20.4718 46.1131 20.5004C44.7605 20.5255 43.1002 20.4217 41.6295 20.2249C40.9103 20.1283 40.4022 20.0531 40.1982 20.0102C40.1016 19.9923 39.9478 19.9673 39.8619 19.9529L39.708 19.9279L39.7331 20.0496C39.7474 20.1175 39.7975 20.3358 39.844 20.5326C39.8905 20.733 39.9299 20.9584 39.9334 21.0336C39.9334 21.1123 39.9692 21.3664 40.0157 21.599C40.1052 22.0856 40.0801 22.0605 40.531 22.1214C40.9532 22.1786 42.8927 22.2967 43.4366 22.3003C43.9912 22.3003 45.6086 22.2108 46.0308 22.1536C46.1883 22.1321 46.5246 22.0784 46.7787 22.0283C47.0291 21.9818 47.2761 21.9425 47.3261 21.9425C47.3727 21.9425 47.5516 21.9031 47.7233 21.8566C47.8951 21.8101 48.0991 21.76 48.1778 21.7457C48.4819 21.6956 49.5626 21.3342 50.0134 21.1338C50.1172 21.0873 50.2174 21.0479 50.2353 21.0479C50.2639 21.0479 50.6038 20.8761 51.112 20.6006C51.3052 20.4968 51.5914 20.3251 51.892 20.1354C52.1103 19.9995 52.6864 19.5486 52.8832 19.3661C52.9905 19.2659 53.1158 19.1586 53.1587 19.1264C53.2052 19.0977 53.2303 19.0584 53.2196 19.0405C53.1945 18.9975 53.1695 19.0011 53.0621 19.0548Z" fill="white"/>
<path d="M29.4276 19.3191C28.6762 19.3727 27.7745 19.5552 27.0445 19.7985C26.8763 19.8558 26.7189 19.9023 26.6974 19.9023C26.676 19.9023 26.5543 19.9488 26.4291 20.0097C26.3002 20.0669 26.1857 20.117 26.1714 20.117C26.1571 20.117 26.0319 20.1743 25.8995 20.2423C25.7635 20.3102 25.6383 20.3675 25.6204 20.3675C25.5882 20.3675 25.2124 20.5679 24.8117 20.7933C24.5505 20.9436 23.8849 21.373 23.6666 21.5304C23.5485 21.6163 23.4126 21.7165 23.3625 21.7523C23.2301 21.8453 22.6504 22.3141 22.4858 22.4608C22.2317 22.6898 21.7165 23.2086 21.7165 23.2337C21.7165 23.248 21.6735 23.3124 21.6199 23.3732C21.5626 23.4376 21.4767 23.5414 21.4266 23.6022C21.3336 23.7096 20.9901 24.2177 20.8147 24.5004C20.5822 24.8725 20.1814 25.6562 20.0669 25.9496C19.9846 26.1714 19.8057 26.6402 19.7198 26.8799C19.5838 27.2485 19.4192 27.7924 19.387 27.9713C19.3691 28.0679 19.3298 28.2397 19.2976 28.347C19.2654 28.4544 19.2188 28.6655 19.1902 28.8122C19.1652 28.9589 19.1186 29.2344 19.0829 29.4205C19.0507 29.6066 19.0113 29.807 18.9934 29.8642C18.9755 29.9215 18.9612 30.0682 18.9612 30.1863C18.9612 30.3079 18.9469 30.5334 18.9254 30.6908C18.8682 31.1596 18.7823 32.5837 18.7823 33.0847C18.7823 33.625 18.8324 34.5017 18.9075 35.3783C18.9362 35.7111 18.9648 36.051 18.9684 36.1298C18.9791 36.2693 18.9791 36.2729 19.158 36.2979C19.2582 36.3158 19.4657 36.3516 19.6232 36.3838C20.1062 36.484 21.3085 36.6415 21.3372 36.6093C21.3479 36.5985 21.3336 36.3588 21.305 36.0761C21.1583 34.5875 21.1153 32.1829 21.2084 30.8697C21.2513 30.2543 21.3551 29.3919 21.4302 29.009C21.4517 28.9088 21.4839 28.7192 21.5018 28.5796C21.5232 28.4436 21.5698 28.2146 21.6091 28.0715C21.6485 27.9284 21.6807 27.7781 21.6807 27.7387C21.6807 27.6707 21.8346 27.1412 21.8954 27.0052C21.9133 26.9658 21.9347 26.8835 21.9491 26.8263C21.992 26.6187 22.2997 25.8673 22.5824 25.2876C22.7041 25.0336 22.7864 24.894 23.0583 24.4503C23.3482 23.9851 23.6881 23.5808 24.3644 22.9081C24.8296 22.4429 25.0622 22.2282 25.4737 21.8811C25.5917 21.7773 26.1857 21.3229 26.3933 21.1726C26.9694 20.7575 28.1609 20.092 28.712 19.8773C28.7907 19.8451 28.9374 19.7842 29.0412 19.7377C29.1414 19.6912 29.2487 19.6518 29.2809 19.6518C29.3096 19.6518 29.4097 19.6161 29.5064 19.5767C29.5994 19.5338 29.789 19.4729 29.925 19.4407C30.2864 19.3548 30.2757 19.294 29.9036 19.3012C29.7425 19.3047 29.5278 19.3119 29.4276 19.3191Z" fill="white"/>
<path d="M34.4192 19.6917C34.1723 19.706 33.8682 19.7346 33.7394 19.7525C33.6105 19.774 33.3207 19.8169 33.0953 19.8456C32.6516 19.91 32.3259 19.9636 32.1291 20.0102C32.0612 20.028 31.8286 20.0817 31.6103 20.1282C31.3956 20.1783 31.1272 20.2463 31.0199 20.2785C30.9125 20.3107 30.7837 20.3465 30.7336 20.3572C30.5726 20.3894 29.8641 20.6185 29.5707 20.733C28.8407 21.0121 28.0356 21.4021 27.6205 21.6705C27.5525 21.717 27.4595 21.7635 27.4201 21.7778C27.3772 21.7921 27.3164 21.8315 27.2806 21.8709C27.2448 21.9102 27.2019 21.9424 27.1804 21.9424C27.0301 21.9424 25.266 23.4274 25.334 23.4954C25.3483 23.5097 25.5308 23.431 25.7455 23.3236C26.1677 23.1089 26.6007 22.9086 26.6401 22.9086C26.6508 22.9086 26.8011 22.8549 26.9729 22.7869C27.141 22.7225 27.37 22.6402 27.4774 22.6044C27.5847 22.5686 27.6921 22.5293 27.71 22.5149C27.7314 22.5006 27.8352 22.4684 27.9426 22.4434C28.0499 22.4183 28.2539 22.3611 28.3898 22.3181C28.5294 22.2716 28.7047 22.2215 28.7835 22.2108C28.8622 22.1965 29.1198 22.1392 29.356 22.0784C29.5921 22.0211 29.8963 21.9603 30.0359 21.9424C30.1718 21.9245 30.4652 21.8816 30.6799 21.8386C30.8982 21.7993 31.5638 21.7241 32.1649 21.6705C33.1704 21.5774 33.378 21.5703 34.795 21.5739C35.8362 21.5774 36.4839 21.5953 36.7988 21.6311C37.0564 21.6562 37.2854 21.674 37.3141 21.6633C37.3463 21.649 37.357 21.6061 37.3427 21.4987C37.3033 21.2232 37.2496 20.9226 37.1888 20.6542C37.1566 20.5075 37.1208 20.2248 37.1065 20.028L37.085 19.6702L35.9758 19.6666C35.3675 19.6631 34.6661 19.6738 34.4192 19.6917Z" fill="white"/>
<path d="M34.3298 35.2175C34.201 35.3034 33.5784 35.6112 33.5319 35.6112C33.514 35.6112 33.4496 35.6362 33.3887 35.6684C33.2027 35.7614 32.5872 36.0083 32.4154 36.0584C32.326 36.0835 32.1363 36.1479 31.9896 36.2016C31.8429 36.2517 31.6604 36.3089 31.5781 36.3268C31.4958 36.3411 31.3205 36.3876 31.1809 36.427C30.748 36.5522 29.857 36.7562 29.7461 36.7562C29.6888 36.7562 29.4491 36.7956 29.2129 36.8421C28.7012 36.9423 28.3398 36.9852 27.388 37.0604C26.9944 37.0926 26.5041 37.1319 26.2966 37.1498C26.0891 37.1713 25.4772 37.1856 24.9369 37.1856C23.9922 37.1856 23.756 37.1749 22.3605 37.0604C22.017 37.0317 21.5983 36.9995 21.4302 36.9888C21.1618 36.9709 20.7503 36.8958 20.3531 36.7884C20.2815 36.7705 20.167 36.7562 20.099 36.7562C19.981 36.7562 19.48 36.6918 19.0148 36.6131C18.4351 36.5165 16.9931 36.4664 15.6691 36.4878C14.61 36.5093 14.3094 36.5343 13.4506 36.6703C13.1465 36.7168 12.853 36.7562 12.8029 36.7562C12.7528 36.7562 12.4845 36.8135 12.2125 36.8814C11.9406 36.9494 11.6829 37.0067 11.6472 37.0067C11.6078 37.0067 11.4468 37.046 11.2893 37.0961C11.1283 37.1427 10.8957 37.2142 10.7669 37.2536C9.94748 37.5076 9.07081 37.8798 8.33368 38.2877C8.16908 38.3772 7.39976 38.8781 7.29956 38.9604C6.99899 39.2002 6.54097 39.5973 6.45509 39.6904C6.34774 39.8049 6.34774 39.8049 6.4372 39.7834C6.4873 39.7691 6.64116 39.7047 6.77714 39.6367C7.17075 39.4435 7.51426 39.2968 7.56793 39.2968C7.59298 39.2968 7.7218 39.2467 7.8542 39.1858C7.98659 39.1286 8.14404 39.0678 8.20487 39.0606C8.2657 39.0499 8.41956 39.0034 8.54838 38.9568C8.6772 38.9103 8.87043 38.8531 8.97777 38.8316C9.08512 38.8066 9.32844 38.7493 9.51451 38.7028C9.70058 38.6563 10.0727 38.5847 10.3375 38.5453C10.6023 38.5024 10.9673 38.4451 11.1426 38.4201C12.327 38.234 15.6441 38.234 17.1899 38.4165C18.1704 38.5346 18.3171 38.5525 18.6749 38.599C18.8824 38.6276 19.2045 38.6813 19.3905 38.7207C19.5766 38.7636 19.777 38.7958 19.8342 38.7958C19.8879 38.7958 20.099 38.8352 20.2994 38.8817C20.4962 38.9318 20.7825 38.9855 20.9292 39.0069C21.813 39.1286 25.0192 39.1322 25.8135 39.0105C25.9316 38.9926 26.3038 38.9354 26.6365 38.8853C26.9729 38.8352 27.3916 38.76 27.5669 38.7207C27.7458 38.6813 28.0034 38.6241 28.1394 38.5954C28.7084 38.4738 29.7675 38.141 30.4116 37.8798C30.637 37.7903 30.8732 37.6973 30.9305 37.6722C30.9913 37.6508 31.0951 37.6007 31.1631 37.5613C31.231 37.522 31.3599 37.4575 31.4493 37.4182C31.5388 37.3824 31.6676 37.3144 31.7356 37.2679C31.8036 37.2214 31.8715 37.1856 31.8894 37.1856C31.9038 37.1856 32.0505 37.1033 32.2115 37.0067C32.3725 36.9065 32.5371 36.8063 32.5765 36.7812C32.6552 36.7347 33.1275 36.402 33.1848 36.3554C33.2027 36.3375 33.3172 36.2517 33.4353 36.1622C33.7358 35.9368 34.4837 35.2462 34.4873 35.1889C34.4908 35.1281 34.4551 35.1352 34.3298 35.2175Z" fill="white"/>
<path d="M19.4801 39.154C19.4694 39.1719 19.4837 39.3222 19.5123 39.4832C19.6018 39.9949 19.6411 40.3026 19.6769 40.8C19.6984 41.0648 19.7377 41.5657 19.7664 41.9093C19.8379 42.7573 19.8379 44.9508 19.7664 45.7022C19.6697 46.7471 19.6053 47.2945 19.5588 47.545C19.5302 47.681 19.4801 47.9565 19.4479 48.1533C19.3799 48.5434 19.1903 49.2805 19.0507 49.7135C19.0006 49.8637 18.9612 50.014 18.9612 50.0462C18.9612 50.0749 18.9219 50.1858 18.8754 50.2896C18.8253 50.3933 18.7609 50.5579 18.7287 50.6581C18.6965 50.7547 18.632 50.9086 18.582 50.9945C18.5354 51.0804 18.4961 51.1662 18.4961 51.1841C18.4961 51.3094 17.877 52.4151 17.555 52.8623C17.3797 53.1128 17.3618 53.145 17.4262 53.145C17.4798 53.145 18.1096 52.594 18.4102 52.2791C18.6965 51.9857 19.1402 51.4489 19.1402 51.3988C19.1402 51.3809 19.1652 51.3416 19.1974 51.3165C19.3405 51.1984 19.863 50.3361 20.1492 49.7457C20.4677 49.0837 20.525 48.9549 20.575 48.7974C20.5965 48.7187 20.6538 48.572 20.6967 48.4754C20.8255 48.1891 21.212 46.9153 21.2513 46.6505C21.2764 46.4966 21.3408 46.2103 21.466 45.7344C21.4875 45.6629 21.5018 45.5555 21.5018 45.4947C21.5018 45.4338 21.5412 45.1512 21.5913 44.8649C21.6414 44.5786 21.6807 44.2602 21.6807 44.1564C21.6807 44.0526 21.7058 43.7556 21.7344 43.5016C21.8131 42.8217 21.8418 41.1829 21.7917 40.2275C21.7666 39.7838 21.7308 39.4045 21.7129 39.383C21.695 39.3579 21.4625 39.3329 21.1368 39.3186C20.5786 39.2935 20.2387 39.2578 19.8129 39.1683C19.5266 39.1075 19.5087 39.1075 19.4801 39.154Z" fill="white"/>
</svg>
