<svg width="411" height="58" viewBox="0 0 411 58" fill="none" xmlns="http://www.w3.org/2000/svg">
<path d="M85.7836 20.1511C84.9199 20.4006 84.2674 20.9572 83.826 21.7632C83.4038 22.5309 83.4038 22.7036 83.4038 29.8429V37.1357H84.8432H86.2826L86.3401 30.2459C86.3593 25.3904 86.4553 23.2793 86.6088 23.0874C86.724 22.9339 87.0886 22.8379 87.4149 22.8763C88.1441 22.9531 88.1825 23.0298 91.2916 30.0348C92.5006 32.7792 93.6521 35.3317 93.844 35.6963C94.938 37.7498 98.3349 38.268 100.081 36.6751C101.137 35.7155 101.156 35.562 101.156 27.8853C101.156 24.0086 101.156 20.7077 101.156 20.5733C101.156 20.4198 100.734 20.343 99.7167 20.343H98.2773V27.2136C98.2773 33.6428 98.2581 34.1226 97.9319 34.4105C96.9531 35.2933 96.4733 34.6983 94.439 30.1307C90.9077 22.2238 90.6199 21.6289 90.1593 21.1299C89.2381 20.1511 87.2613 19.6905 85.7836 20.1511Z" fill="white"/>
<path d="M141.9 20.1703C140.672 20.5158 140.23 21.3794 137.121 29.3631C135.49 33.5277 134.166 37.0205 134.166 37.0973C134.166 37.1741 134.876 37.2317 135.739 37.1933L137.332 37.1357L139.923 30.457C141.363 26.7722 142.648 23.6056 142.764 23.3945C143.013 23.0107 143.493 22.9339 143.915 23.2026C144.049 23.2794 145.297 26.3692 146.679 30.054C148.041 33.7388 149.27 36.867 149.366 36.9822C149.596 37.27 152.321 37.3276 152.494 37.0397C152.551 36.9438 152.513 36.7135 152.417 36.5216C152.148 35.9842 149.807 29.8429 147.792 24.3733C146.621 21.1875 146.161 20.4966 144.932 20.1511C144.088 19.9208 142.725 19.9208 141.9 20.1703Z" fill="white"/>
<path d="M47.6499 26.7146L47.7074 33.1054L48.2832 34.2569C48.9165 35.5044 49.9912 36.4832 51.2195 36.867C51.6417 37.0013 53.6376 37.1357 56.2093 37.1741L60.489 37.27L60.4315 35.7539L60.3739 34.2569L56.3437 34.161C52.1983 34.065 51.8912 34.0074 51.1619 33.2014C50.7973 32.7984 50.7781 32.4145 50.6821 26.5995L50.5862 20.439L49.0892 20.3814L47.5923 20.3238L47.6499 26.7146Z" fill="white"/>
<path d="M69.9698 20.5735C69.9122 20.7078 69.893 24.4886 69.9122 28.9794L69.9698 37.1358L71.3708 37.1934L72.7526 37.251V28.7875V20.3432H71.4092C70.5072 20.3432 70.0274 20.4199 69.9698 20.5735Z" fill="white"/>
<path d="M114.801 20.5542C112.786 20.9573 111.404 22.435 111.193 24.4118C111.04 25.9279 111.404 26.945 112.422 27.9622C113.228 28.7683 113.266 28.8642 112.94 29.0369C111.827 29.6511 111.136 31.0329 111.136 32.6641C111.136 34.5065 111.942 35.7924 113.573 36.5984L114.686 37.1358L119.849 37.1934C123.111 37.2318 125.05 37.1934 125.126 37.0782C125.184 36.9631 125.203 36.2914 125.146 35.5621L125.05 34.2571L120.252 34.1611C115.128 34.0651 114.725 33.9884 114.398 33.0864C114.149 32.453 114.149 31.551 114.398 31.0712C114.859 30.2268 115.454 30.1309 120.348 30.1309C122.881 30.1309 124.954 30.0733 124.954 29.9773C125.05 28.5763 125.011 27.5784 124.896 27.5016C124.819 27.4632 122.919 27.4248 120.674 27.4248C116.317 27.444 115.339 27.3289 114.705 26.6764C114.091 26.0622 114.149 24.738 114.84 24.0471L115.358 23.5097L120.213 23.4138L125.05 23.3178V21.8785V20.4391L120.348 20.4199C117.757 20.4007 115.262 20.4583 114.801 20.5542Z" fill="white"/>
<path d="M166.849 20.5543C163.702 21.1684 161.821 23.3946 161.36 27.0602C160.957 30.3612 161.648 33.3359 163.26 35.1015C164.738 36.752 166.811 37.3277 170.687 37.1934C173.393 37.0974 174.372 36.7712 175.37 35.6389C176.925 33.8732 176.963 30.1501 175.466 28.538C174.43 27.4249 173.796 27.2521 170.822 27.2521H168.135V28.4996V29.747H170.131C171.206 29.747 172.376 29.843 172.722 29.9582C174.219 30.4763 174.295 33.2591 172.837 33.9308C172.53 34.0652 171.378 34.1611 169.805 34.1611C166.887 34.1611 166.043 33.8924 165.179 32.7601C163.74 30.8794 163.874 26.2542 165.429 24.4885C166.216 23.6057 166.676 23.5098 171.206 23.4138L175.524 23.3179L175.581 21.8209L175.639 20.3432L171.647 20.3623C169.459 20.3815 167.29 20.4583 166.849 20.5543Z" fill="white"/>
<path d="M189.303 20.6118C187.864 20.9572 186.885 21.6865 186.367 22.742C185.427 24.6996 185.695 26.5995 187.115 27.9813C187.922 28.7682 187.96 28.845 187.595 29.0369C186.482 29.651 185.791 31.0328 185.791 32.6641C185.791 34.5065 186.597 35.7923 188.229 36.5984L189.342 37.1357H194.523H199.705V35.6964V34.257L194.907 34.161C192.278 34.1035 189.956 33.9883 189.764 33.8924C189.015 33.5277 188.612 31.9156 189.054 31.0904C189.476 30.3035 189.937 30.2268 194.907 30.1308L199.705 30.0348V28.7874V27.5399L195.003 27.444C190.877 27.3672 190.225 27.3096 189.764 27.0026C188.728 26.3309 188.632 24.8531 189.553 23.9703C190.033 23.5097 190.09 23.5097 194.869 23.4137L199.705 23.3178V21.8784V20.439L195.003 20.4007C191.741 20.3815 189.994 20.439 189.303 20.6118Z" fill="white"/>
<path d="M217.112 21.8209L217.169 23.3179L221.986 23.4138C226.381 23.5098 226.861 23.5482 227.226 23.8744C228.128 24.6997 228.089 26.3693 227.13 27.2713C226.65 27.7319 226.554 27.7319 222.409 27.8279L218.187 27.9239L217.63 28.5572L217.073 29.1713V33.2207V37.251L218.474 37.1934L219.856 37.1358L219.952 33.9692L220.048 30.8026L223.503 30.7066C226.573 30.6107 227.072 30.5531 227.974 30.1501C228.531 29.9006 229.279 29.3632 229.625 28.941C231.448 26.8107 231.198 22.9916 229.107 21.4755C227.725 20.4775 226.88 20.3432 221.737 20.3432H217.054L217.112 21.8209Z" fill="white"/>
<path d="M240.526 21.821L240.583 23.3179L245.707 23.4139L250.851 23.5099L251.369 24.0472C251.81 24.4886 251.906 24.7381 251.906 25.525C251.906 26.3502 251.81 26.5613 251.273 27.0987L250.659 27.732L246.168 27.828C240.161 27.9623 240.449 27.6744 240.526 33.3935L240.583 37.1359H241.927H243.27L243.366 33.9693L243.462 30.8027L245.822 30.7451L248.164 30.6875L248.605 31.3976C248.836 31.8006 249.68 33.24 250.486 34.6218L251.945 37.1359L253.499 37.1935C254.459 37.2319 255.073 37.1743 255.073 37.0591C255.073 36.8864 252.981 33.144 251.791 31.1673L251.426 30.5532L252.252 30.0542C254.113 28.9795 254.996 27.233 254.843 24.9684C254.689 22.9533 253.96 21.8018 252.194 20.8806C251.35 20.4584 251.158 20.4392 245.899 20.3816L240.468 20.3241L240.526 21.821Z" fill="white"/>
<path d="M269.85 20.5351C267.855 20.9573 266.146 22.2431 265.264 23.9512C264.784 24.8916 264.285 27.3097 264.285 28.7299C264.285 33.4318 266.281 36.3489 269.946 37.0207C271.386 37.2893 274.648 37.2893 276.088 37.0207C279.274 36.4257 281.135 34.2571 281.596 30.5531C282.037 27.137 281.269 24.0663 279.561 22.3391C278.045 20.8421 276.951 20.4967 273.497 20.4199C271.962 20.3815 270.33 20.4391 269.85 20.5351ZM276.587 23.8552C278.256 24.738 279.005 27.041 278.64 30.1501C278.391 32.2419 277.757 33.2783 276.318 33.8732C275.243 34.3146 270.599 34.2763 269.563 33.7965C267.874 33.0288 267.336 31.7813 267.317 28.7491C267.317 26.9643 267.375 26.5612 267.797 25.6592C268.641 23.7976 269.467 23.433 273.036 23.433C275.512 23.4138 275.819 23.4522 276.587 23.8552Z" fill="white"/>
<path d="M290.462 20.5926C290.405 20.7461 290.385 21.4178 290.424 22.0895L290.481 23.3178L292.592 23.3562C293.763 23.3754 294.819 23.3945 294.934 23.4137C295.126 23.4137 295.183 24.9874 295.222 30.2651L295.279 37.1357H296.719H298.158L298.254 30.2651L298.35 23.3754L300.653 23.3562L302.956 23.3178V21.8784V20.439L296.757 20.3815C291.652 20.3431 290.558 20.3815 290.462 20.5926Z" fill="white"/>
<path d="M317.522 20.535C313.876 21.3027 312.014 24.0854 312.014 28.7874C311.995 32.9328 313.415 35.562 316.275 36.6943C317.234 37.0782 317.695 37.1166 320.516 37.1357C323.088 37.1357 323.875 37.0782 324.738 36.7903C326.734 36.1186 328.078 34.756 328.884 32.6257C329.306 31.5126 329.383 26.5995 328.999 25.4289C328.231 23.1451 326.734 21.4562 324.911 20.8421C323.74 20.439 318.885 20.2471 317.522 20.535ZM324.067 23.7784C325.736 24.5269 326.35 25.8895 326.35 28.7874C326.35 30.8985 326.082 31.9732 325.372 32.8368C324.451 33.9307 323.644 34.161 320.612 34.161C317.33 34.161 316.563 33.8924 315.642 32.3762C315.143 31.5894 315.066 31.2439 314.989 29.5934C314.836 26.3692 315.469 24.6228 317.1 23.8168C317.829 23.4713 318.252 23.4137 320.612 23.4137C322.8 23.4137 323.433 23.4905 324.067 23.7784Z" fill="white"/>
<path d="M344.371 20.535C342.99 20.8228 341.665 21.5137 340.879 22.3582C339.362 23.9895 338.844 25.6591 338.844 28.7874C338.844 31.858 339.362 33.5469 340.802 35.1398C341.665 36.0994 342.913 36.7519 344.41 37.0206C345.849 37.2893 352.701 37.3084 352.797 37.0398C352.835 36.9438 352.816 36.2721 352.758 35.562L352.662 34.257L348.536 34.161C344.813 34.0651 344.352 34.0267 343.738 33.662C342.356 32.856 341.761 31.359 341.761 28.7874C341.761 26.2157 342.356 24.7187 343.738 23.9127C344.352 23.5481 344.813 23.5097 348.536 23.4137L352.662 23.3178L352.758 22.0127C352.816 21.3026 352.835 20.6309 352.797 20.535C352.72 20.3047 345.561 20.3047 344.371 20.535Z" fill="white"/>
<path d="M368.303 20.4583C364.695 21.1492 362.776 23.529 362.431 27.7895C362.028 32.8177 364.12 36.3106 368.016 37.0207C369.455 37.2893 372.717 37.2893 374.157 37.0207C377.074 36.4833 378.878 34.6409 379.531 31.551C380.317 27.8087 379.473 23.9896 377.419 22.0896C376.076 20.8421 374.809 20.4967 371.566 20.4199C370.031 20.4007 368.572 20.4199 368.303 20.4583ZM374.637 23.836C376.172 24.6229 376.805 26.0622 376.805 28.7875C376.805 31.5702 376.114 33.0864 374.56 33.7965C373.907 34.0843 373.293 34.1611 371.086 34.1611C368.668 34.1611 368.303 34.1227 367.536 33.7197C365.962 32.9328 365.425 31.6662 365.425 28.7491C365.425 27.3481 365.521 26.6188 365.809 25.8511C366.576 23.8168 367.421 23.433 371.086 23.4138C373.524 23.4138 373.869 23.4522 374.637 23.836Z" fill="white"/>
<path d="M389.683 20.6117C389.625 20.746 389.606 23.6632 389.644 27.0793C389.702 32.4913 389.76 33.3933 390.048 34.0266C390.566 35.1398 391.621 36.1761 392.734 36.6751C393.675 37.0973 394.02 37.1357 398.108 37.1933L402.484 37.27L402.426 35.7539L402.369 34.2569L398.338 34.161C392.274 34.0074 392.6 34.4489 392.542 26.4843C392.504 23.2601 392.485 20.5733 392.485 20.4774C392.485 20.4006 391.871 20.343 391.141 20.343C390.163 20.343 389.76 20.4198 389.683 20.6117Z" fill="white"/>
<path d="M142.092 29.7469C140.864 30.4954 140.422 31.7812 140.979 33.0287C141.823 34.8711 144.261 35.063 145.297 33.3357C146.045 32.1075 145.585 30.3802 144.318 29.7085C143.493 29.2671 142.86 29.2671 142.092 29.7469Z" fill="white"/>
<path d="M30.8853 5.62583C30.8724 5.65156 30.7598 5.78024 30.6376 5.91534C30.5153 6.05045 30.3706 6.22094 30.3159 6.29493C30.2612 6.36891 30.1776 6.4815 30.1293 6.54262C29.9588 6.77423 29.576 7.3983 29.412 7.71676C29.3187 7.89369 29.2125 8.09956 29.1739 8.17033C29.1385 8.2411 29.1064 8.30865 29.1064 8.31831C29.1064 8.33117 29.0549 8.45019 28.9938 8.58208C28.9326 8.71397 28.8812 8.83621 28.8812 8.8523C28.8812 8.8716 28.8361 8.99062 28.7847 9.12251C28.73 9.2544 28.6721 9.41203 28.6592 9.47314C28.6431 9.53426 28.6013 9.67259 28.5659 9.77874C28.4759 10.0425 28.2861 10.7534 28.2217 11.0655C28.1928 11.207 28.1445 11.4515 28.1124 11.6123C28.077 11.77 28.0352 12.0241 28.0159 12.1753C27.9966 12.3265 27.9612 12.5935 27.9354 12.7704C27.7746 13.8641 27.7649 16.6563 27.9129 17.676C27.9322 17.7918 27.9676 18.0427 27.9933 18.239C28.0223 18.432 28.0673 18.7311 28.0931 18.8984C28.1928 19.5128 28.2828 20.4071 28.3729 21.6649C28.4276 22.4208 28.418 23.8941 28.3536 24.7048C28.2346 26.1845 28.2442 26.1105 28.1091 26.7796C28.077 26.9469 28.0352 27.1656 28.0191 27.2622C28.003 27.3587 27.9676 27.5195 27.9419 27.616C27.9129 27.7125 27.8679 27.9023 27.8357 28.0342C27.8068 28.1661 27.7714 28.2883 27.7585 28.3076C27.7456 28.3237 27.707 28.4266 27.6781 28.5328C27.6073 28.7676 27.4272 29.2469 27.3242 29.4657C26.8674 30.4372 26.5876 30.8907 26.0761 31.4762C25.8735 31.711 25.1207 32.4637 24.828 32.7243C24.5642 32.9591 24.0173 33.3998 23.7664 33.5768C23.7214 33.6089 23.6345 33.6701 23.5734 33.7119C23.5123 33.7569 23.4383 33.8084 23.4126 33.8245C23.3868 33.8438 23.2936 33.9081 23.2035 33.9692C23.1166 34.0303 22.9912 34.1075 22.9301 34.1397C22.8689 34.1687 22.7596 34.233 22.6888 34.278C22.618 34.3231 22.4218 34.4292 22.2545 34.5129C22.0873 34.5965 21.9361 34.6769 21.9168 34.6898C21.9007 34.7027 21.8203 34.7413 21.7398 34.7702C21.6594 34.8024 21.5243 34.8603 21.4342 34.9021C21.3474 34.9407 21.2444 34.9825 21.2123 34.9954C21.1801 35.0083 21.1608 35.0243 21.1705 35.0372C21.2091 35.0726 21.8235 34.9761 22.1741 34.8796C22.3703 34.8249 22.5859 34.767 22.6566 34.7541C22.7757 34.7316 22.9172 34.6834 23.6056 34.4164C23.8662 34.3134 24.6125 33.9499 24.9277 33.7666C25.3041 33.5478 25.5293 33.4063 25.5679 33.3612C25.5904 33.3323 25.6193 33.3098 25.6354 33.3098C25.674 33.3098 26.1919 32.9431 26.3721 32.7886C26.4525 32.7211 26.5586 32.631 26.6101 32.5924C26.7259 32.5023 27.6234 31.6145 27.7038 31.5084C28.1381 30.9293 28.3504 30.6237 28.4984 30.3664C28.701 30.0061 28.7911 29.842 28.8394 29.7391C28.8651 29.678 28.9391 29.5236 28.997 29.4013C29.0581 29.2759 29.1064 29.1633 29.1064 29.1504C29.1064 29.1343 29.1514 29.0282 29.2029 28.9124C29.2575 28.7998 29.2994 28.6904 29.2994 28.6743C29.2994 28.655 29.3347 28.5521 29.3766 28.4427C29.4699 28.2015 29.6307 27.6482 29.7336 27.2139C29.7755 27.037 29.8237 26.8343 29.843 26.7635C29.8623 26.6928 29.9009 26.4901 29.9299 26.3132C29.9588 26.1363 29.9942 25.9272 30.0071 25.8468C30.2805 24.2705 30.2805 21.3947 30.0071 19.6544C29.991 19.5643 29.9588 19.3327 29.9331 19.1397C29.9041 18.9435 29.8462 18.6121 29.798 18.3998C29.7529 18.1907 29.7047 17.9141 29.6886 17.7886C29.6725 17.6664 29.6307 17.3962 29.5953 17.1935C29.5599 16.9908 29.5213 16.7013 29.5085 16.5501C29.4988 16.399 29.4602 16.0387 29.428 15.7459C29.3412 15.0061 29.2994 14.1343 29.2994 13.1564C29.2994 12.3329 29.3637 11.1845 29.428 10.8081C29.4441 10.702 29.4731 10.4639 29.4924 10.2773C29.5535 9.66937 29.9299 7.95159 30.0392 7.78431C30.0521 7.76501 30.0875 7.66529 30.1164 7.55914C30.1486 7.45298 30.2065 7.27927 30.2515 7.17312C30.2934 7.06696 30.3287 6.96724 30.3287 6.95437C30.3287 6.89647 30.7984 5.93143 30.9013 5.78345C30.9753 5.67086 30.9946 5.58079 30.9399 5.58079C30.9239 5.58079 30.8981 5.60009 30.8853 5.62583Z" fill="white"/>
<path d="M41.9737 17.0103C41.9286 17.0361 41.8643 17.0714 41.8289 17.0907C41.7228 17.1519 41.1727 17.3867 41.1373 17.3867C41.1212 17.3867 41.0311 17.4221 40.9379 17.4639C40.7448 17.5507 40.198 17.7277 39.9213 17.7888C39.8216 17.8113 39.5868 17.866 39.4002 17.911C38.3387 18.1652 37.2514 18.2842 35.7266 18.3099C34.5107 18.3324 33.018 18.2391 31.6959 18.0622C31.0494 17.9754 30.5926 17.9078 30.4092 17.8692C30.3224 17.8531 30.184 17.8306 30.1068 17.8177L29.9685 17.7952L29.991 17.9046C30.0039 17.9657 30.0489 18.1619 30.0907 18.3389C30.1326 18.519 30.1679 18.7217 30.1712 18.7892C30.1712 18.86 30.2033 19.0884 30.2452 19.2975C30.3256 19.735 30.3031 19.7125 30.7084 19.7671C31.088 19.8186 32.8315 19.9248 33.3204 19.928C33.819 19.928 35.273 19.8476 35.6526 19.7961C35.7942 19.7768 36.0965 19.7285 36.3249 19.6835C36.5501 19.6417 36.7721 19.6063 36.8171 19.6063C36.8589 19.6063 37.0198 19.5709 37.1742 19.5291C37.3286 19.4873 37.5119 19.4422 37.5827 19.4294C37.8561 19.3843 38.8276 19.0594 39.2329 18.8793C39.3262 18.8375 39.4163 18.8021 39.4324 18.8021C39.4581 18.8021 39.7637 18.6477 40.2205 18.4C40.3942 18.3067 40.6516 18.1523 40.9218 17.9818C41.118 17.8596 41.6359 17.4542 41.8128 17.2902C41.9093 17.2001 42.0219 17.1036 42.0605 17.0747C42.1023 17.0489 42.1249 17.0135 42.1152 16.9975C42.0927 16.9589 42.0702 16.9621 41.9737 17.0103Z" fill="white"/>
<path d="M20.7265 17.2482C20.051 17.2964 19.2404 17.4605 18.5841 17.6792C18.4329 17.7307 18.2914 17.7725 18.2721 17.7725C18.2528 17.7725 18.1434 17.8143 18.0308 17.869C17.915 17.9205 17.8121 17.9655 17.7992 17.9655C17.7864 17.9655 17.6738 18.017 17.5547 18.0781C17.4325 18.1392 17.3199 18.1907 17.3038 18.1907C17.2749 18.1907 16.9371 18.3708 16.5768 18.5735C16.342 18.7086 15.7437 19.0946 15.5475 19.2361C15.4413 19.3133 15.3191 19.4034 15.274 19.4356C15.155 19.5192 14.6339 19.9406 14.4859 20.0725C14.2575 20.2784 13.7943 20.7448 13.7943 20.7674C13.7943 20.7802 13.7557 20.8381 13.7074 20.8928C13.656 20.9507 13.5788 21.044 13.5337 21.0987C13.4501 21.1952 13.1413 21.652 12.9836 21.9061C12.7746 22.2407 12.4143 22.9451 12.3113 23.2089C12.2373 23.4084 12.0765 23.8298 11.9993 24.0453C11.8771 24.3766 11.7291 24.8656 11.7001 25.0264C11.6841 25.1133 11.6487 25.2677 11.6197 25.3642C11.5908 25.4607 11.5489 25.6505 11.5232 25.7824C11.5007 25.9143 11.4589 26.162 11.4267 26.3292C11.3978 26.4965 11.3624 26.6766 11.3463 26.7281C11.3302 26.7796 11.3173 26.9115 11.3173 27.0176C11.3173 27.127 11.3045 27.3297 11.2852 27.4712C11.2337 27.8926 11.1565 29.1729 11.1565 29.6233C11.1565 30.109 11.2015 30.8971 11.2691 31.6852C11.2948 31.9844 11.3206 32.29 11.3238 32.3608C11.3334 32.4862 11.3334 32.4894 11.4943 32.512C11.5843 32.528 11.7709 32.5602 11.9124 32.5892C12.3467 32.6792 13.4276 32.8208 13.4533 32.7918C13.463 32.7822 13.4501 32.5666 13.4244 32.3125C13.2925 30.9743 13.2539 28.8126 13.3375 27.632C13.3761 27.0787 13.4694 26.3035 13.5369 25.9593C13.5562 25.8692 13.5852 25.6987 13.6013 25.5733C13.6206 25.451 13.6624 25.2452 13.6978 25.1165C13.7332 24.9878 13.7621 24.8527 13.7621 24.8173C13.7621 24.7562 13.9004 24.2801 13.9551 24.1579C13.9712 24.1225 13.9905 24.0485 14.0034 23.997C14.042 23.8105 14.3186 23.1349 14.5728 22.6138C14.6821 22.3854 14.7561 22.26 15.0006 21.8611C15.2612 21.4429 15.5668 21.0794 16.1747 20.4746C16.5929 20.0564 16.802 19.8634 17.1719 19.5514C17.2781 19.4581 17.8121 19.0496 17.9987 18.9145C18.5166 18.5413 19.5878 17.943 20.0832 17.75C20.1539 17.721 20.2858 17.6663 20.3791 17.6245C20.4692 17.5827 20.5657 17.5473 20.5946 17.5473C20.6204 17.5473 20.7104 17.5151 20.7973 17.4798C20.8809 17.4412 21.0514 17.3865 21.1737 17.3575C21.4986 17.2803 21.4889 17.2256 21.1544 17.2321C21.0096 17.2353 20.8166 17.2417 20.7265 17.2482Z" fill="white"/>
<path d="M25.2139 17.5829C24.9919 17.5958 24.7185 17.6215 24.6027 17.6376C24.4869 17.6569 24.2263 17.6955 24.0237 17.7212C23.6248 17.7791 23.3321 17.8274 23.1551 17.8692C23.094 17.8853 22.8849 17.9335 22.6887 17.9754C22.4957 18.0204 22.2544 18.0815 22.1579 18.1105C22.0614 18.1394 21.9456 18.1716 21.9006 18.1812C21.7558 18.2102 21.1189 18.4161 20.8551 18.519C20.1989 18.7699 19.4751 19.1206 19.1019 19.3618C19.0408 19.4036 18.9572 19.4455 18.9218 19.4583C18.8832 19.4712 18.8285 19.5066 18.7963 19.542C18.7642 19.5773 18.7256 19.6063 18.7063 19.6063C18.5712 19.6063 16.9853 20.9413 17.0464 21.0024C17.0593 21.0153 17.2233 20.9445 17.4163 20.848C17.7959 20.655 18.1852 20.4748 18.2205 20.4748C18.2302 20.4748 18.3653 20.4266 18.5197 20.3655C18.6709 20.3076 18.8768 20.2336 18.9733 20.2014C19.0698 20.1692 19.1663 20.1339 19.1824 20.121C19.2017 20.1081 19.295 20.0792 19.3915 20.0566C19.488 20.0341 19.6713 19.9827 19.7936 19.9441C19.919 19.9022 20.0766 19.8572 20.1474 19.8476C20.2182 19.8347 20.4498 19.7832 20.6621 19.7285C20.8744 19.6771 21.1478 19.6224 21.2733 19.6063C21.3955 19.5902 21.6593 19.5516 21.8523 19.513C22.0486 19.4776 22.6469 19.4101 23.1873 19.3618C24.0912 19.2782 24.2778 19.2717 25.5517 19.275C26.4878 19.2782 27.07 19.2943 27.3531 19.3264C27.5847 19.3489 27.7906 19.365 27.8163 19.3554C27.8453 19.3425 27.8549 19.3039 27.842 19.2074C27.8067 18.9597 27.7584 18.6895 27.7037 18.4482C27.6748 18.3164 27.6426 18.0622 27.6297 17.8853L27.6104 17.5636L26.6132 17.5604C26.0664 17.5572 25.4359 17.5668 25.2139 17.5829Z" fill="white"/>
<path d="M25.1335 31.5405C25.0177 31.6177 24.458 31.8943 24.4162 31.8943C24.4001 31.8943 24.3422 31.9168 24.2875 31.9458C24.1202 32.0294 23.567 32.2514 23.4125 32.2964C23.3321 32.3189 23.1616 32.3768 23.0297 32.4251C22.8979 32.4701 22.7338 32.5216 22.6598 32.5377C22.5858 32.5505 22.4282 32.5924 22.3027 32.6278C21.9135 32.7403 21.1125 32.9237 21.0128 32.9237C20.9613 32.9237 20.7458 32.9591 20.5335 33.0009C20.0735 33.091 19.7486 33.1296 18.8929 33.1971C18.5391 33.2261 18.0984 33.2615 17.9118 33.2775C17.7252 33.2968 17.1751 33.3097 16.6894 33.3097C15.8402 33.3097 15.6278 33.3001 14.3733 33.1971C14.0645 33.1714 13.6881 33.1424 13.5369 33.1328C13.2956 33.1167 12.9257 33.0492 12.5686 32.9527C12.5043 32.9366 12.4014 32.9237 12.3403 32.9237C12.2341 32.9237 11.7837 32.8658 11.3656 32.795C10.8444 32.7082 9.54806 32.6631 8.35783 32.6824C7.40566 32.7017 7.13544 32.7243 6.36341 32.8465C6.08998 32.8883 5.8262 32.9237 5.78116 32.9237C5.73613 32.9237 5.49487 32.9752 5.25039 33.0363C5.00591 33.0974 4.7743 33.1489 4.74213 33.1489C4.70674 33.1489 4.56199 33.1843 4.42045 33.2293C4.27569 33.2711 4.0666 33.3355 3.95079 33.3708C3.21414 33.5992 2.42602 33.9338 1.76336 34.3005C1.61538 34.3809 0.923766 34.8313 0.833695 34.9053C0.563483 35.1208 0.15173 35.4779 0.0745262 35.5615C-0.0219784 35.6644 -0.0219784 35.6644 0.0584421 35.6451C0.103478 35.6323 0.241801 35.5744 0.36404 35.5132C0.71789 35.3395 1.0267 35.2076 1.07496 35.2076C1.09747 35.2076 1.21328 35.1626 1.3323 35.1079C1.45132 35.0564 1.59286 35.0018 1.64755 34.9953C1.70224 34.9857 1.84056 34.9439 1.95636 34.902C2.07217 34.8602 2.24588 34.8088 2.34238 34.7895C2.43889 34.7669 2.65763 34.7155 2.82491 34.6736C2.99218 34.6318 3.32673 34.5675 3.56477 34.5321C3.80282 34.4935 4.13093 34.442 4.28856 34.4195C5.35333 34.2522 8.33532 34.2522 9.72498 34.4163C10.6064 34.5225 10.7383 34.5385 11.06 34.5804C11.2465 34.6061 11.5361 34.6543 11.7033 34.6897C11.8706 34.7283 12.0507 34.7573 12.1022 34.7573C12.1505 34.7573 12.3403 34.7927 12.5204 34.8345C12.6973 34.8795 12.9547 34.9278 13.0866 34.9471C13.8811 35.0564 16.7634 35.0597 17.4775 34.9503C17.5837 34.9342 17.9182 34.8827 18.2174 34.8377C18.5198 34.7927 18.8961 34.7251 19.0538 34.6897C19.2146 34.6543 19.4462 34.6029 19.5684 34.5771C20.0799 34.4678 21.0321 34.1686 21.6111 33.9338C21.8138 33.8534 22.0261 33.7697 22.0776 33.7472C22.1322 33.7279 22.2255 33.6829 22.2867 33.6475C22.3478 33.6121 22.4636 33.5542 22.544 33.5188C22.6244 33.4866 22.7402 33.4255 22.8013 33.3837C22.8625 33.3419 22.9236 33.3097 22.9397 33.3097C22.9525 33.3097 23.0844 33.2357 23.2292 33.1489C23.3739 33.0588 23.5219 32.9687 23.5573 32.9462C23.6281 32.9044 24.0527 32.6052 24.1042 32.5634C24.1202 32.5473 24.2232 32.4701 24.3293 32.3897C24.5995 32.187 25.2719 31.5662 25.2751 31.5147C25.2783 31.46 25.2461 31.4665 25.1335 31.5405Z" fill="white"/>
<path d="M11.7837 35.079C11.774 35.0951 11.7869 35.2302 11.8126 35.3749C11.8931 35.8349 11.9285 36.1116 11.9606 36.5587C11.9799 36.7968 12.0153 37.2471 12.041 37.5559C12.1054 38.3183 12.1054 40.2902 12.041 40.9658C11.9542 41.9051 11.8963 42.3972 11.8545 42.6224C11.8287 42.7447 11.7837 42.9924 11.7547 43.1693C11.6936 43.5199 11.5231 44.1826 11.3977 44.5718C11.3526 44.7069 11.3173 44.842 11.3173 44.871C11.3173 44.8967 11.2819 44.9964 11.2401 45.0897C11.195 45.183 11.1371 45.331 11.1082 45.421C11.0792 45.5079 11.0213 45.6462 10.9763 45.7234C10.9345 45.8006 10.8991 45.8778 10.8991 45.8939C10.8991 46.0065 10.3426 47.0005 10.053 47.4026C9.89542 47.6278 9.87934 47.6567 9.93724 47.6567C9.98549 47.6567 10.5517 47.1613 10.8219 46.8783C11.0792 46.6145 11.4781 46.132 11.4781 46.0869C11.4781 46.0708 11.5006 46.0355 11.5296 46.0129C11.6582 45.9068 12.1279 45.1315 12.3852 44.6008C12.6715 44.0056 12.723 43.8898 12.768 43.7483C12.7873 43.6775 12.8388 43.5456 12.8774 43.4588C12.9932 43.2014 13.3406 42.0563 13.376 41.8182C13.3985 41.6799 13.4564 41.4225 13.569 40.9947C13.5883 40.9304 13.6012 40.8339 13.6012 40.7792C13.6012 40.7245 13.6366 40.4704 13.6816 40.213C13.7267 39.9557 13.762 39.6694 13.762 39.5761C13.762 39.4828 13.7846 39.2158 13.8103 38.9874C13.8811 38.3762 13.9068 36.9029 13.8618 36.044C13.8392 35.6451 13.8071 35.3042 13.791 35.2849C13.7749 35.2623 13.5658 35.2398 13.2731 35.227C12.7713 35.2044 12.4657 35.1723 12.0829 35.0918C11.8255 35.0372 11.8094 35.0372 11.7837 35.079Z" fill="white"/>
</svg>
