<svg width="122" height="262" viewBox="0 0 122 262" fill="none" xmlns="http://www.w3.org/2000/svg">
<path d="M121.04 3L118.153 5.88675L115.267 3L118.153 0.113249L121.04 3ZM6.20963 259C6.20963 260.473 5.01573 261.667 3.54297 261.667C2.07021 261.667 0.876305 260.473 0.876305 259C0.876305 257.527 2.07021 256.333 3.54297 256.333C5.01573 256.333 6.20963 257.527 6.20963 259ZM118.153 3.5H31.543V2.5H118.153V3.5ZM4.04297 31V259H3.04297V31H4.04297ZM31.543 3.5C16.3551 3.5 4.04297 15.8122 4.04297 31H3.04297C3.04297 15.2599 15.8028 2.5 31.543 2.5V3.5Z" fill="#A355FF"/>
</svg>
