<svg width="121" height="182" viewBox="0 0 121 182" fill="none" xmlns="http://www.w3.org/2000/svg">
<path d="M0.800749 3L3.6875 5.88675L6.57425 3L3.6875 0.113249L0.800749 3ZM115.631 179C115.631 180.473 116.825 181.667 118.298 181.667C119.771 181.667 120.965 180.473 120.965 179C120.965 177.527 119.771 176.333 118.298 176.333C116.825 176.333 115.631 177.527 115.631 179ZM3.6875 3.5H90.2979V2.5H3.6875V3.5ZM117.798 31V179H118.798V31H117.798ZM90.2979 3.5C105.486 3.5 117.798 15.8122 117.798 31H118.798C118.798 15.2599 106.038 2.5 90.2979 2.5V3.5Z" fill="#A355FF"/>
</svg>
