<svg width="121" height="262" viewBox="0 0 121 262" fill="none" xmlns="http://www.w3.org/2000/svg">
<path d="M0.113249 3L3 5.88675L5.88675 3L3 0.113249L0.113249 3ZM114.944 259C114.944 260.473 116.138 261.667 117.61 261.667C119.083 261.667 120.277 260.473 120.277 259C120.277 257.527 119.083 256.333 117.61 256.333C116.138 256.333 114.944 257.527 114.944 259ZM3 3.5H89.6104V2.5H3V3.5ZM117.11 31V259H118.11V31H117.11ZM89.6104 3.5C104.798 3.5 117.11 15.8122 117.11 31H118.11C118.11 15.2599 105.35 2.5 89.6104 2.5V3.5Z" fill="#A355FF"/>
</svg>
