<svg width="33" height="33" viewBox="0 0 33 33" fill="none" xmlns="http://www.w3.org/2000/svg">
<path d="M32.5889 5.78662C32.5889 3.0252 30.3503 0.786621 27.5889 0.786621H5.58887C2.82744 0.786621 0.588867 3.0252 0.588867 5.78662V27.7866C0.588867 30.548 2.82744 32.7866 5.58887 32.7866H27.5889C30.3503 32.7866 32.5889 30.548 32.5889 27.7866V5.78662Z" fill="#7289DA"/>
<path d="M15.1409 16.4986C14.6849 16.4986 14.3249 16.8986 14.3249 17.3866C14.3249 17.8746 14.6929 18.2746 15.1409 18.2746C15.5969 18.2746 15.9569 17.8746 15.9569 17.3866C15.9649 16.8986 15.5969 16.4986 15.1409 16.4986ZM18.0609 16.4986C17.6049 16.4986 17.2449 16.8986 17.2449 17.3866C17.2449 17.8746 17.6129 18.2746 18.0609 18.2746C18.5169 18.2746 18.8769 17.8746 18.8769 17.3866C18.8769 16.8986 18.5169 16.4986 18.0609 16.4986Z" fill="white"/>
<path d="M21.9489 9.78662H11.2289C10.3249 9.78662 9.58887 10.5226 9.58887 11.4346V22.2506C9.58887 23.1626 10.3249 23.8986 11.2289 23.8986H20.3009L19.8769 22.4186L20.9009 23.3706L21.8689 24.2666L23.5889 25.7866V11.4346C23.5889 10.5226 22.8529 9.78662 21.9489 9.78662ZM18.8609 20.2346C18.8609 20.2346 18.5729 19.8906 18.3329 19.5866C19.3809 19.2906 19.7809 18.6346 19.7809 18.6346C19.4529 18.8506 19.1409 19.0026 18.8609 19.1066C18.4609 19.2746 18.0769 19.3866 17.7009 19.4506C16.9329 19.5946 16.2289 19.5546 15.6289 19.4426C15.1729 19.3546 14.7809 19.2266 14.4529 19.0986C14.2689 19.0266 14.0689 18.9386 13.8689 18.8266C13.8449 18.8106 13.8209 18.8026 13.7969 18.7866C13.7809 18.7786 13.7729 18.7706 13.7649 18.7626C13.6209 18.6826 13.5409 18.6266 13.5409 18.6266C13.5409 18.6266 13.9249 19.2666 14.9409 19.5706C14.7009 19.8746 14.4049 20.2346 14.4049 20.2346C12.6369 20.1786 11.9649 19.0186 11.9649 19.0186C11.9649 16.4426 13.1169 14.3546 13.1169 14.3546C14.2689 13.4906 15.3649 13.5146 15.3649 13.5146L15.4449 13.6106C14.0049 14.0266 13.3409 14.6586 13.3409 14.6586C13.3409 14.6586 13.5169 14.5626 13.8129 14.4266C14.6689 14.0506 15.3489 13.9466 15.6289 13.9226C15.6769 13.9146 15.7169 13.9066 15.7649 13.9066C16.2529 13.8426 16.8049 13.8266 17.3809 13.8906C18.1409 13.9786 18.9569 14.2026 19.7889 14.6586C19.7889 14.6586 19.1569 14.0586 17.7969 13.6426L17.9089 13.5146C17.9089 13.5146 19.0049 13.4906 20.1569 14.3546C20.1569 14.3546 21.3089 16.4426 21.3089 19.0186C21.3089 19.0186 20.6289 20.1786 18.8609 20.2346Z" fill="white"/>
</svg>
