<svg width="33" height="33" viewBox="0 0 33 33" fill="none" xmlns="http://www.w3.org/2000/svg">
<path d="M27.5 0.786621H5.5C2.73858 0.786621 0.5 3.0252 0.5 5.78662V27.7866C0.5 30.548 2.73858 32.7866 5.5 32.7866H27.5C30.2614 32.7866 32.5 30.548 32.5 27.7866V5.78662C32.5 3.0252 30.2614 0.786621 27.5 0.786621Z" fill="#231E1B"/>
<path fill-rule="evenodd" clip-rule="evenodd" d="M16.4755 8.97852C12.0719 8.97852 8.5 12.5504 8.5 16.9541C8.5 20.477 10.7997 23.4617 13.9312 24.5381C14.3226 24.5871 14.4694 24.3424 14.4694 24.1467C14.4694 23.951 14.4694 23.4617 14.4694 22.7767C12.2676 23.266 11.7783 21.7002 11.7783 21.7002C11.4358 20.7706 10.8976 20.5259 10.8976 20.5259C10.1636 20.0366 10.9465 20.0366 10.9465 20.0366C11.7294 20.0855 12.1697 20.8684 12.1697 20.8684C12.9037 22.0917 14.0291 21.7492 14.4694 21.5534C14.5183 21.0152 14.763 20.6727 14.9587 20.477C13.1972 20.2813 11.3379 19.5963 11.3379 16.5137C11.3379 15.6329 11.6315 14.9479 12.1697 14.3608C12.1208 14.214 11.8272 13.3822 12.2676 12.3057C12.2676 12.3057 12.9526 12.11 14.4694 13.1375C15.1055 12.9418 15.7905 12.8929 16.4755 12.8929C17.1606 12.8929 17.8456 12.9907 18.4817 13.1375C19.9985 12.11 20.6835 12.3057 20.6835 12.3057C21.1239 13.3822 20.8303 14.214 20.7813 14.4097C21.2706 14.9479 21.6131 15.6819 21.6131 16.5626C21.6131 19.6452 19.7538 20.2813 17.9924 20.477C18.2859 20.7216 18.5306 21.2109 18.5306 21.9449C18.5306 23.0213 18.5306 23.8531 18.5306 24.1467C18.5306 24.3424 18.6774 24.5871 19.0688 24.5381C22.2492 23.4617 24.5 20.477 24.5 16.9541C24.4511 12.5504 20.8792 8.97852 16.4755 8.97852Z" fill="white"/>
</svg>
