<svg width="33" height="32" viewBox="0 0 33 32" fill="none" xmlns="http://www.w3.org/2000/svg">
<path d="M10.2027 12.1996C10.2027 11.9996 10.1027 11.7996 10.0027 11.6996L8.50273 9.89961V9.59961H13.1027L16.7027 17.4996L19.9027 9.59961H24.3027V9.89961L23.0027 11.0996C22.9027 11.1996 22.8027 11.2996 22.9027 11.4996V20.4996C22.9027 20.5996 22.9027 20.7996 23.0027 20.8996L24.2027 22.0996V22.3996H17.9027V22.0996L19.2027 20.7996C19.3027 20.6996 19.3027 20.5996 19.3027 20.3996V13.0996L15.7027 22.1996H15.3027L11.1027 13.0996V19.1996C11.1027 19.4996 11.2027 19.6996 11.3027 19.8996L13.0027 21.8996V22.1996H8.30273V21.8996L10.0027 19.8996C10.2027 19.6996 10.3027 19.4996 10.2027 19.1996V12.1996Z" fill="white"/>
</svg>
