<svg width="33" height="33" viewBox="0 0 33 33" fill="none" xmlns="http://www.w3.org/2000/svg">
<path d="M27.4111 0.786621H5.41113C2.64971 0.786621 0.411133 3.0252 0.411133 5.78662V27.7866C0.411133 30.548 2.64971 32.7866 5.41113 32.7866H27.4111C30.1726 32.7866 32.4111 30.548 32.4111 27.7866V5.78662C32.4111 3.0252 30.1726 0.786621 27.4111 0.786621Z" fill="#1DA1F2"/>
<path d="M24.4111 11.7866C23.8111 12.0866 23.2111 12.1866 22.5111 12.2866C23.2111 11.8866 23.7111 11.2866 23.9111 10.4866C23.3111 10.8866 22.6111 11.0866 21.8111 11.2866C21.2111 10.6866 20.3111 10.2866 19.4111 10.2866C17.3111 10.2866 15.7111 12.2866 16.2111 14.2866C13.5111 14.1866 11.1111 12.8866 9.41113 10.8866C8.51113 12.3866 9.01113 14.2866 10.4111 15.2866C9.91113 15.2866 9.41113 15.0866 8.91113 14.8866C8.91113 16.3866 10.0111 17.7866 11.5111 18.1866C11.0111 18.2866 10.5111 18.3866 10.0111 18.2866C10.4111 19.5866 11.6111 20.5866 13.1111 20.5866C11.9111 21.4866 10.1111 21.9866 8.41113 21.7866C9.91113 22.6866 11.6111 23.2866 13.4111 23.2866C19.5111 23.2866 22.9111 18.1866 22.7111 13.4866C23.4111 13.0866 24.0111 12.4866 24.4111 11.7866Z" fill="white"/>
</svg>
