<svg width="89" height="88" viewBox="0 0 89 88" fill="none" xmlns="http://www.w3.org/2000/svg">
<g filter="url(#filter0_d_61_1556)">
<rect x="25.2021" y="25.4795" width="38.8153" height="37.0411" rx="18.5206" fill="#9185EB" shape-rendering="crispEdges"/>
<path d="M44.6094 51.154C44.3804 51.154 44.1597 51.0711 43.9877 50.9204C43.338 50.3523 42.7116 49.8185 42.159 49.3476L42.1562 49.3451C40.536 47.9644 39.1369 46.7721 38.1634 45.5975C37.0752 44.2844 36.5684 43.0394 36.5684 41.6793C36.5684 40.3579 37.0215 39.1388 37.8442 38.2464C38.6766 37.3435 39.8189 36.8462 41.061 36.8462C41.9893 36.8462 42.8395 37.1397 43.5878 37.7184C43.9655 38.0106 44.3078 38.3681 44.6094 38.7852C44.9111 38.3681 45.2533 38.0106 45.6311 37.7184C46.3794 37.1397 47.2296 36.8462 48.1579 36.8462C49.3998 36.8462 50.5422 37.3435 51.3747 38.2464C52.1974 39.1388 52.6504 40.3579 52.6504 41.6793C52.6504 43.0394 52.1437 44.2844 51.0555 45.5974C50.082 46.7721 48.683 47.9643 47.0631 49.3449C46.5094 49.8165 45.8821 50.3512 45.231 50.9207C45.0591 51.0711 44.8382 51.154 44.6094 51.154ZM41.061 37.7883C40.0852 37.7883 39.1888 38.1777 38.5367 38.8849C37.8748 39.6028 37.5103 40.5952 37.5103 41.6793C37.5103 42.8232 37.9354 43.8463 38.8887 44.9964C39.81 46.1082 41.1804 47.276 42.7671 48.6282L42.77 48.6307C43.3247 49.1034 43.9536 49.6394 44.608 50.2116C45.2664 49.6382 45.8962 49.1015 46.452 48.628C48.0386 47.2757 49.4089 46.1082 50.3302 44.9964C51.2833 43.8463 51.7085 42.8232 51.7085 41.6793C51.7085 40.5952 51.3439 39.6028 50.6821 38.8849C50.0301 38.1777 49.1336 37.7883 48.1579 37.7883C47.443 37.7883 46.7867 38.0155 46.2072 38.4636C45.6908 38.8631 45.3311 39.3681 45.1202 39.7215C45.0117 39.9032 44.8208 40.0116 44.6094 40.0116C44.398 40.0116 44.2071 39.9032 44.0986 39.7215C43.8878 39.3681 43.5281 38.8631 43.0115 38.4636C42.432 38.0155 41.7757 37.7883 41.061 37.7883Z" fill="white"/>
</g>
<defs>
<filter id="filter0_d_61_1556" x="0.650188" y="0.927532" width="87.9193" height="86.1449" filterUnits="userSpaceOnUse" color-interpolation-filters="sRGB">
<feFlood flood-opacity="0" result="BackgroundImageFix"/>
<feColorMatrix in="SourceAlpha" type="matrix" values="0 0 0 0 0 0 0 0 0 0 0 0 0 0 0 0 0 0 127 0" result="hardAlpha"/>
<feOffset/>
<feGaussianBlur stdDeviation="12.276"/>
<feComposite in2="hardAlpha" operator="out"/>
<feColorMatrix type="matrix" values="0 0 0 0 1 0 0 0 0 1 0 0 0 0 1 0 0 0 0.3 0"/>
<feBlend mode="normal" in2="BackgroundImageFix" result="effect1_dropShadow_61_1556"/>
<feBlend mode="normal" in="SourceGraphic" in2="effect1_dropShadow_61_1556" result="shape"/>
</filter>
</defs>
</svg>
