<svg width="33" height="32" viewBox="0 0 33 32" fill="none" xmlns="http://www.w3.org/2000/svg">
<path d="M11.9027 24H8.50273V13.3H11.9027V24ZM10.2027 11.8C9.10274 11.8 8.30273 11 8.30273 9.9C8.30273 8.8 9.20274 8 10.2027 8C11.3027 8 12.1027 8.8 12.1027 9.9C12.1027 11 11.3027 11.8 10.2027 11.8ZM24.3027 24H20.9027V18.2C20.9027 16.5 20.2027 16 19.2027 16C18.2027 16 17.2027 16.8 17.2027 18.3V24H13.8027V13.3H17.0027V14.8C17.3027 14.1 18.5027 13 20.2027 13C22.1027 13 24.1027 14.1 24.1027 17.4V24H24.3027Z" fill="white"/>
</svg>
