<svg width="973" height="1073" viewBox="0 0 973 1073" fill="none" xmlns="http://www.w3.org/2000/svg">
<g clip-path="url(#clip0_86_2956)">
<g style="mix-blend-mode:soft-light" opacity="0.6">
<path d="M509.24 139.682C509.247 140.065 505.409 145.017 500.531 150.657C491.435 161.448 480.245 178.308 471.805 193.683C469.022 198.712 465.87 204.513 464.661 206.546C455.383 223.181 436.957 274.641 433.651 293.276C432.946 296.736 431.346 303.658 430.095 308.66C428.746 313.567 427.334 320.295 427.012 323.748C426.691 327.201 425.326 336.609 423.938 344.677C420.571 365.324 418.22 399.932 417.528 436.331C417.147 457.978 418.967 490.214 422.283 520.509C423.317 530.161 424.347 539.623 424.381 541.537C424.513 543.546 424.93 545.453 425.417 545.923C426.391 546.863 459.14 552.312 474.779 554.045C494.253 556.091 495.98 556.252 496.92 555.278C497.39 554.791 497.012 549.723 495.953 543.996C494.991 538.364 493.832 527.086 493.209 518.958C492.776 510.827 491.505 493.231 490.598 479.937C488.635 450.384 488.374 403.47 490.067 380.268C490.857 370.87 491.69 358.503 492.166 352.941C494.136 323.797 506.953 263.914 515.59 243.461C516.694 240.952 517.694 237.965 517.771 236.911C517.932 235.184 520.05 230.455 528.25 212.403C531.201 206.03 536.951 195.587 545.599 181.165C556.759 162.582 596.887 120.023 624.355 97.7976C649.744 77.1414 675.3 60.4081 702.159 47.0028C712.22 42.0359 712.314 41.9385 725.533 36.8196C730.097 35.0147 736.088 32.7056 738.654 31.6066C741.317 30.6017 746.838 28.7797 750.841 27.7509C769.901 22.6236 747.293 22.0689 715.494 26.9444C659.252 35.7025 603.41 61.5932 547.5 105.104C541.361 109.905 517.792 130.625 509.791 138.332C509.508 138.624 509.233 139.299 509.24 139.682Z" fill="white"/>
<path d="M45.1189 660.613C45.5087 660.989 49.1223 659.584 53.1051 657.407C56.9939 655.327 62.0211 652.652 64.2074 651.751C66.4877 650.753 73.5234 647.946 79.7933 645.153C91.1042 640.452 94.0528 639.346 113.854 632.865C124.231 629.52 127.566 628.599 148.55 624.012C186.035 615.779 218.331 611.948 266.756 610.511C304.844 609.258 357.636 611.094 389.683 614.736C398.029 615.641 408.774 616.79 413.57 617.279C418.269 617.674 428.06 619.032 435.168 620.246C442.275 621.459 451.109 622.834 454.756 623.344C458.31 623.951 466.378 625.339 472.622 626.472C483.77 628.763 506.583 630.08 545.087 630.735C569.035 631.266 624.789 627.304 645.313 623.779C653.427 622.389 665.645 620.256 672.614 619.079C679.583 617.902 688.644 615.921 692.644 614.7C696.836 613.477 704.271 611.621 709.423 610.571C714.478 609.428 729.047 604.86 741.896 600.513C763.974 592.843 769.015 590.934 781.172 585.355C784.117 584.058 787.727 582.461 789.248 581.86C791.912 580.855 804.811 573.922 817.612 566.895C822.921 563.928 828.036 560.773 839.201 553.297C841.948 551.62 846.394 548.573 849.329 546.701C863.712 537.061 895.924 506.995 894.536 504.339C894.234 503.482 893.085 503.503 892.239 504.38C890.452 506.231 872.523 515.647 860.648 520.933C841.365 529.607 807.966 541.406 791.472 545.434C789.376 546.046 781.464 548.006 773.84 550.057C766.31 552.01 757.061 554.186 753.337 554.731C749.612 555.276 738.159 557.395 727.949 559.396C717.739 561.398 705.995 563.235 701.88 563.404C697.766 563.573 687.922 564.61 679.801 565.617C655.246 568.639 641.378 569.557 612 570.559C570.655 571.679 501.364 568.221 476.102 563.788C460.442 560.907 446.816 559.235 413.722 555.899C390.603 553.534 302.538 555.103 280.953 558.169C255.165 561.884 237.123 564.982 226.635 567.467C221.392 568.805 212.237 570.883 206.326 572.329C194.978 574.925 156.615 587.578 148.83 591.355C146.264 592.454 139.615 595.445 134.104 597.841C118.139 604.637 98.2313 615.908 83.0059 626.616C64.5668 639.68 43.1704 658.733 45.1189 660.613Z" fill="white"/>
<path d="M1068.81 -371.364C1067.4 -369.711 1061.04 -361.363 1054.68 -353.015C1048.22 -344.76 1042.15 -336.322 1041.04 -334.195C1039.92 -332.26 1036.94 -327.42 1034.52 -323.547C1029.03 -314.735 1011.11 -277.838 1007.19 -266.948C1002.53 -254.13 994.664 -228.232 990.909 -213.228C977.928 -162.535 971.947 -100.572 973.657 -36.8309C974.797 5.66311 976.205 20.1925 983.637 66.5003C987.311 89.99 991.023 115.586 991.737 123.425C992.545 131.166 993.963 146.27 995.017 157.071C998.735 193.774 999.32 242.694 996.525 279.321C995.99 286.895 995.14 298.305 994.682 304.824C993.862 317.957 987.234 359.728 984.18 371.081C983.103 375.122 981.855 380.315 981.513 382.619C979.287 397.404 960.693 444.75 949.735 463.905C933.39 492.347 926.456 500.897 895.971 531.124C858.142 568.375 829.515 590.047 790.62 610.465C780.945 615.616 765.846 622.684 761.467 624.102C759.848 624.61 759.19 625.292 759.774 625.856C761.236 627.266 781.095 624.04 792.332 620.584C798.045 618.759 804.523 616.92 806.814 616.496C814.256 615.023 847.242 601.509 861.189 594.27C910.047 568.791 950.088 537.437 977.056 503.251C999.252 475.375 1010.86 454.964 1026.92 415.898C1038.75 386.674 1052.17 328.504 1056.6 286.677C1058.8 265.093 1059.6 186.466 1057.71 171.658C1057.16 167.742 1056.18 155.886 1055.61 145.363C1054.27 123.747 1049.36 90.0335 1043.08 60.079C1030.39 -1.64719 1023.53 -64.3389 1023.15 -123.412C1022.74 -200.007 1030.54 -257.023 1049.33 -314.522C1056.24 -335.328 1058.72 -341.405 1069.26 -362.084C1072.87 -369.138 1075.25 -375.309 1074.58 -375.584C1073.03 -376.322 1071.9 -375.536 1068.81 -371.364Z" fill="white"/>
<path d="M615.842 152.05C617.373 152.023 622.219 149.926 626.676 147.452C657.306 130.724 719.836 109.406 755.833 103.69C760.414 102.843 768.528 101.453 773.872 100.4C788.28 97.5584 832.428 92.5587 857.487 90.9631C890.677 88.9355 948.507 88.6711 968.65 90.6103C973.255 91.1028 975.64 90.5815 976.284 89.1337C976.838 87.9748 975.63 79.2828 973.642 69.8387C971.655 60.3946 969.414 47.5078 968.825 41.2944L967.572 30.1136L943.83 30.3451C871.937 31.3388 816.467 40.4662 757.467 61.051C734.056 69.1284 721.798 74.4217 702.065 84.7316C692.292 89.7891 674.206 101.123 656.515 113.216C648.852 118.427 628.862 135.827 620.119 144.888C614.102 151.124 613.544 152.091 615.842 152.05Z" fill="white"/>
<path d="M442.062 641.763C444.21 649.481 447.58 677.381 451.262 717.435C454.432 750.222 455.014 815.132 452.425 841.798C451.544 851.485 450.52 863.855 450.135 869.128C449.847 874.495 448.403 884.767 447.004 892.26C445.605 899.754 444.05 909.166 443.55 913.388C443.051 917.61 441.548 924.626 440.189 928.96C438.83 933.293 437.223 939.832 436.519 943.292C435.382 949.345 430.771 964.652 424.66 981.709C416.367 1005.32 403.137 1031.31 388.12 1053.7C386.159 1056.51 385.058 1059.21 385.545 1059.68C388.176 1062.22 417.154 1033.36 431.648 1013.85C461.479 973.776 479.266 934.87 494.885 876.374C501.88 849.822 510.461 799.398 511.084 780.62C511.278 775.35 512.15 759.822 512.862 746.021C514.974 708.736 512.464 643.094 508.762 639.521C507.885 638.675 499.062 637.875 489.291 637.666C479.426 637.554 464.947 636.376 456.98 635.273C449.107 634.073 442.107 633.527 441.543 634.112C440.885 634.794 441.137 638.237 442.062 641.763Z" fill="white"/>
</g>
</g>
<defs>
<clipPath id="clip0_86_2956">
<rect width="973" height="1073" fill="white"/>
</clipPath>
</defs>
</svg>
