<svg width="33" height="32" viewBox="0 0 33 32" fill="none" xmlns="http://www.w3.org/2000/svg">
<path d="M24.3027 11C23.7027 11.3 23.1027 11.4 22.4027 11.5C23.1027 11.1 23.6027 10.5 23.8027 9.7C23.2027 10.1 22.5027 10.3 21.7027 10.5C21.1027 9.9 20.2027 9.5 19.3027 9.5C17.2027 9.5 15.6027 11.5 16.1027 13.5C13.4027 13.4 11.0027 12.1 9.30273 10.1C8.40273 11.6 8.90273 13.5 10.3027 14.5C9.80273 14.5 9.30273 14.3 8.80273 14.1C8.80273 15.6 9.90273 17 11.4027 17.4C10.9027 17.5 10.4027 17.6 9.90273 17.5C10.3027 18.8 11.5027 19.8 13.0027 19.8C11.8027 20.7 10.0027 21.2 8.30273 21C9.80273 21.9 11.5027 22.5 13.3027 22.5C19.4027 22.5 22.8027 17.4 22.6027 12.7C23.3027 12.3 23.9027 11.7 24.3027 11Z" fill="white"/>
</svg>
