<svg width="33" height="33" viewBox="0 0 33 33" fill="none" xmlns="http://www.w3.org/2000/svg">
<path d="M28.0214 2.13037H4.65324C3.37637 2.13037 2.26074 3.04912 2.26074 4.311V27.731C2.26074 28.9997 3.37637 30.1304 4.65324 30.1304H28.0145C29.2982 30.1304 30.2607 28.9922 30.2607 27.731V4.311C30.2682 3.04912 29.2982 2.13037 28.0214 2.13037ZM10.9401 25.4697H6.92887V12.9979H10.9401V25.4697ZM9.07324 11.1016H9.04449C7.76074 11.1016 6.92949 10.146 6.92949 8.94975C6.92949 7.73162 7.78262 6.7985 9.09512 6.7985C10.4076 6.7985 11.2107 7.72475 11.2395 8.94975C11.2389 10.146 10.4076 11.1016 9.07324 11.1016ZM25.6001 25.4697H21.5889V18.6504C21.5889 17.0166 21.0051 15.9004 19.5539 15.9004C18.4451 15.9004 17.7889 16.6504 17.497 17.381C17.3876 17.6435 17.3582 18.001 17.3582 18.366V25.4697H13.347V12.9979H17.3582V14.7335C17.942 13.9022 18.8539 12.706 20.9757 12.706C23.6089 12.706 25.6007 14.4416 25.6007 18.1835L25.6001 25.4697Z" fill="white"/>
</svg>
